<svg width="41" height="41" viewBox="0 0 41 41" fill="none" xmlns="http://www.w3.org/2000/svg">
<g clip-path="url(#clip0)">
<path d="M4.53247 17.1513H8.28247V27.1513H5.78247C5.45095 27.1513 5.13301 27.283 4.89859 27.5174C4.66417 27.7518 4.53247 28.0698 4.53247 28.4013C4.53247 28.7328 4.66417 29.0508 4.89859 29.2852C5.13301 29.5196 5.45095 29.6513 5.78247 29.6513H35.7825C36.114 29.6513 36.4319 29.5196 36.6664 29.2852C36.9008 29.0508 37.0325 28.7328 37.0325 28.4013C37.0325 28.0698 36.9008 27.7518 36.6664 27.5174C36.4319 27.283 36.114 27.1513 35.7825 27.1513H33.2825V17.1513H37.0325C37.3046 17.1513 37.5693 17.0625 37.7864 16.8983C38.0035 16.7341 38.1611 16.5036 38.2352 16.2418C38.3093 15.9799 38.2959 15.701 38.1971 15.4474C38.0983 15.1938 37.9194 14.9794 37.6876 14.8368L21.4376 4.83677C21.2406 4.71555 21.0139 4.65137 20.7825 4.65137C20.5512 4.65137 20.3245 4.71555 20.1275 4.83677L3.87747 14.8368C3.64571 14.9794 3.46683 15.1938 3.368 15.4474C3.26917 15.7009 3.25579 15.9798 3.3299 16.2417C3.404 16.5035 3.56154 16.7341 3.77859 16.8982C3.99563 17.0624 4.26033 17.1513 4.53247 17.1513ZM10.7825 17.1513H15.7825V27.1513H10.7825V17.1513ZM23.2825 17.1513V27.1513H18.2825V17.1513H23.2825ZM30.7825 27.1513H25.7825V17.1513H30.7825V27.1513ZM20.7825 7.36911L32.6162 14.6513H8.94903L20.7825 7.36911ZM39.5325 33.4013C39.5325 33.7328 39.4008 34.0508 39.1664 34.2852C38.9319 34.5196 38.614 34.6513 38.2825 34.6513H3.28247C2.95095 34.6513 2.63301 34.5196 2.39859 34.2852C2.16417 34.0508 2.03247 33.7328 2.03247 33.4013C2.03247 33.0698 2.16417 32.7518 2.39859 32.5174C2.63301 32.283 2.95095 32.1513 3.28247 32.1513H38.2825C38.614 32.1513 38.9319 32.283 39.1664 32.5174C39.4008 32.7518 39.5325 33.0698 39.5325 33.4013Z" fill="#2E2E2E"/>
</g>
<defs>
<clipPath id="clip0">
<rect width="40" height="40" fill="white" transform="translate(0.782227 0.901367)"/>
</clipPath>
</defs>
</svg>
