<svg width="20" height="20" viewBox="0 0 20 20" fill="none" xmlns="http://www.w3.org/2000/svg">
<g clip-path="url(#clip0)">
<path d="M0 3.73275V16.0353H5.9625C6.5053 16.0363 7.04594 15.9668 7.57083 15.8286C8.07216 15.7019 8.54645 15.4857 8.97083 15.1903C9.37911 14.9016 9.71252 14.5196 9.94333 14.0761C10.1817 13.6244 10.3017 13.0869 10.3017 12.4636C10.3017 11.6936 10.1183 11.0378 9.745 10.4886C9.37333 9.94359 8.8125 9.56109 8.055 9.34359C8.61167 9.08025 9.02667 8.74109 9.31 8.32859C9.59167 7.91525 9.73167 7.39775 9.73167 6.77859C9.73167 6.20525 9.63833 5.72192 9.45083 5.33525C9.27052 4.95711 8.99373 4.63317 8.64833 4.39608C8.27045 4.14858 7.84825 3.97653 7.405 3.88942C6.8771 3.78025 6.33905 3.72773 5.8 3.73275H0ZM13.0558 4.55775V5.77192H18.0433V4.55858L13.0558 4.55775ZM2.70917 5.82942H5.2425C5.4825 5.82942 5.71667 5.84608 5.93917 5.89025C6.16667 5.92858 6.3625 6.00192 6.53583 6.10692C6.71083 6.20692 6.84917 6.35025 6.95333 6.53359C7.05417 6.71692 7.10417 6.95359 7.10417 7.24025C7.10417 7.75609 6.95333 8.13192 6.64167 8.35942C6.32667 8.59025 5.93 8.70442 5.45 8.70442H2.70833L2.70917 5.82942ZM15.6633 6.87442C14.98 6.87442 14.3642 6.99608 13.805 7.23775C13.2467 7.47942 12.7667 7.81109 12.3625 8.23109C11.9535 8.65992 11.636 9.16742 11.4292 9.72275C11.207 10.3187 11.0954 10.9501 11.1 11.5861C11.1 12.2753 11.2075 12.9111 11.42 13.4861C11.635 14.0619 11.9367 14.5536 12.325 14.9694C12.7296 15.389 13.2203 15.716 13.7633 15.9278C14.33 16.1519 14.9617 16.2653 15.6633 16.2653C16.67 16.2653 17.5333 16.0344 18.2425 15.5711C18.9592 15.1103 19.4842 14.3453 19.8308 13.2736H17.6767C17.5933 13.5486 17.3767 13.8144 17.0233 14.0619C16.665 14.3119 16.2383 14.4369 15.745 14.4369C15.0583 14.4369 14.5283 14.2561 14.1625 13.8978C13.795 13.5394 13.5567 12.8736 13.5567 12.1694H19.9842C20.0328 11.5035 19.9754 10.834 19.8142 10.1861C19.6653 9.57696 19.3992 9.00266 19.0308 8.49525C18.6665 7.99897 18.191 7.59486 17.6425 7.31525C17.0758 7.02025 16.4175 6.87442 15.6633 6.87442ZM15.5892 8.72192C16.19 8.72192 16.6833 8.89692 16.9733 9.21775C17.265 9.54275 17.4792 10.0044 17.5375 10.6278H13.5567C13.5726 10.4285 13.61 10.2315 13.6683 10.0403C13.7308 9.81859 13.8383 9.61025 13.9967 9.41275C14.155 9.21942 14.3633 9.05442 14.6167 8.92109C14.875 8.78775 15.1983 8.72192 15.5892 8.72192ZM2.70917 10.5528H5.65333C6.23667 10.5528 6.71083 10.6861 7.06583 10.9561C7.42083 11.2294 7.59917 11.6794 7.59917 12.3136C7.59917 12.6369 7.5475 12.9053 7.4375 13.1103C7.32917 13.3186 7.17917 13.4828 6.9975 13.6019C6.81667 13.7269 6.60167 13.8103 6.35917 13.8636C6.12083 13.9169 5.8675 13.9403 5.6 13.9403H2.70833L2.70917 10.5528Z" fill="#95D0FA"/>
</g>
<defs>
<clipPath id="clip0">
<rect width="20" height="20" fill="white"/>
</clipPath>
</defs>
</svg>
