<svg width="172" height="122" viewBox="0 0 172 122" fill="none" xmlns="http://www.w3.org/2000/svg">
<g style="mix-blend-mode:hard-light" filter="url(#filter0_f)">
<path d="M121.625 67.027H120.31V68.3416V89.5916V90.9063H121.625H143H144.315V89.5916V68.3416V67.027H143H121.625ZM50.375 61.2583V62.573C53.8081 62.573 57.0991 63.9289 59.5244 66.34C61.9494 68.7508 63.3103 72.0189 63.3103 75.425V89.5916C63.3103 92.9977 61.9494 96.2658 59.5244 98.6766C57.0991 101.088 53.8081 102.444 50.375 102.444H16.0647V20.073H50.375C53.8081 20.073 57.0991 21.4289 59.5244 23.84C61.9494 26.2508 63.3103 29.5189 63.3103 32.925V47.0916C63.3103 50.4977 61.9494 53.7658 59.5244 56.1766C57.0991 58.5877 53.8081 59.9436 50.375 59.9436V61.2583ZM29 31.6103H27.6853V32.925V54.175V55.4896H29H50.375H51.6897V54.175V32.925V31.6103H50.375H29ZM27.6853 89.5916V90.9063H29H50.375H51.6897V89.5916V68.3416V67.027H50.375H29H27.6853V68.3416V89.5916ZM121.625 55.4896H143C146.433 55.4896 149.724 56.8455 152.149 59.2566C154.574 61.6674 155.935 64.9356 155.935 68.3416V89.5916C155.935 92.9977 154.574 96.2658 152.149 98.6766C149.724 101.088 146.433 102.444 143 102.444H121.625C118.192 102.444 114.901 101.088 112.476 98.6766C110.051 96.2658 108.69 92.9977 108.69 89.5916V68.3416C108.69 64.9356 110.051 61.6674 112.476 59.2566C114.901 56.8455 118.192 55.4896 121.625 55.4896ZM80.1897 62.573H91.8103V102.444H80.1897V62.573ZM80.1897 34.2396H91.8103V45.777H80.1897V34.2396Z" stroke="#0094FF" stroke-width="2.62934"/>
</g>
<g style="mix-blend-mode:hard-light" filter="url(#filter1_f)">
<path d="M121.625 66.6224H119.906V68.3416V89.5916V91.3108H121.625H143H144.719V89.5916V68.3416V66.6224H143H121.625ZM50.375 61.2583V62.9775C53.7016 62.9775 56.89 64.2913 59.2392 66.6268C61.5881 68.962 62.9058 72.1269 62.9058 75.425V89.5916C62.9058 92.8896 61.5881 96.0546 59.2392 98.3898C56.89 100.725 53.7016 102.039 50.375 102.039H16.4692V20.4775H50.375C53.7016 20.4775 56.89 21.7913 59.2392 24.1268C61.5881 26.462 62.9058 29.627 62.9058 32.925V47.0916C62.9058 50.3896 61.5881 53.5546 59.2392 55.8898C56.89 58.2253 53.7016 59.5391 50.375 59.5391V61.2583ZM29 31.2058H27.2808V32.925V54.175V55.8941H29H50.375H52.0942V54.175V32.925V31.2058H50.375H29ZM27.2808 89.5916V91.3108H29H50.375H52.0942V89.5916V68.3416V66.6224H50.375H29H27.2808V68.3416V89.5916ZM121.625 55.8941H143C146.327 55.8941 149.515 57.208 151.864 59.5435C154.213 61.8786 155.531 65.0436 155.531 68.3416V89.5916C155.531 92.8896 154.213 96.0546 151.864 98.3898C149.515 100.725 146.327 102.039 143 102.039H121.625C118.298 102.039 115.11 100.725 112.761 98.3898C110.412 96.0546 109.094 92.8896 109.094 89.5916V68.3416C109.094 65.0436 110.412 61.8786 112.761 59.5435C115.11 57.208 118.298 55.8941 121.625 55.8941ZM80.5942 62.9775H91.4058V102.039H80.5942V62.9775ZM80.5942 34.6441H91.4058V45.3724H80.5942V34.6441Z" stroke="#0094FF" stroke-width="3.43837"/>
</g>
<g style="mix-blend-mode:hard-light" filter="url(#filter2_ddi)">
<path d="M121.625 67.027H120.31V68.3416V89.5916V90.9063H121.625H143H144.315V89.5916V68.3416V67.027H143H121.625ZM50.375 61.2583V62.573C53.8081 62.573 57.0991 63.9289 59.5244 66.34C61.9494 68.7508 63.3103 72.0189 63.3103 75.425V89.5916C63.3103 92.9977 61.9494 96.2658 59.5244 98.6766C57.0991 101.088 53.8081 102.444 50.375 102.444H16.0647V20.073H50.375C53.8081 20.073 57.0991 21.4289 59.5244 23.84C61.9494 26.2508 63.3103 29.5189 63.3103 32.925V47.0916C63.3103 50.4977 61.9494 53.7658 59.5244 56.1766C57.0991 58.5877 53.8081 59.9436 50.375 59.9436V61.2583ZM29 31.6103H27.6853V32.925V54.175V55.4896H29H50.375H51.6897V54.175V32.925V31.6103H50.375H29ZM27.6853 89.5916V90.9063H29H50.375H51.6897V89.5916V68.3416V67.027H50.375H29H27.6853V68.3416V89.5916ZM121.625 55.4896H143C146.433 55.4896 149.724 56.8455 152.149 59.2566C154.574 61.6674 155.935 64.9356 155.935 68.3416V89.5916C155.935 92.9977 154.574 96.2658 152.149 98.6766C149.724 101.088 146.433 102.444 143 102.444H121.625C118.192 102.444 114.901 101.088 112.476 98.6766C110.051 96.2658 108.69 92.9977 108.69 89.5916V68.3416C108.69 64.9356 110.051 61.6674 112.476 59.2566C114.901 56.8455 118.192 55.4896 121.625 55.4896ZM80.1897 62.573H91.8103V102.444H80.1897V62.573ZM80.1897 34.2396H91.8103V45.777H80.1897V34.2396Z" stroke="#00B3FF" stroke-opacity="0.2" stroke-width="2.62934"/>
</g>
<g filter="url(#filter3_f)">
<path d="M121.625 67.5326H120.816V68.3416V89.5916V90.4007H121.625H143H143.809V89.5916V68.3416V67.5326H143H121.625ZM50.375 61.2583V62.0673C53.9413 62.0673 57.3606 63.4758 59.8809 65.9814C62.401 68.4868 63.816 71.8838 63.816 75.425V89.5916C63.816 93.1328 62.401 96.5298 59.8809 99.0352C57.3606 101.541 53.9413 102.949 50.375 102.949H15.559V19.5673H50.375C53.9413 19.5673 57.3606 20.9758 59.8809 23.4814C62.401 25.9868 63.816 29.3838 63.816 32.925V47.0916C63.816 50.6328 62.401 54.0298 59.8809 56.5352C57.3606 59.0408 53.9413 60.4493 50.375 60.4493V61.2583ZM29 32.1159H28.191V32.925V54.175V54.984H29H50.375H51.184V54.175V32.925V32.1159H50.375H29ZM28.191 89.5916V90.4007H29H50.375H51.184V89.5916V68.3416V67.5326H50.375H29H28.191V68.3416V89.5916ZM121.625 54.984H143C146.566 54.984 149.986 56.3925 152.506 58.898C155.026 61.4034 156.441 64.8005 156.441 68.3416V89.5916C156.441 93.1328 155.026 96.5298 152.506 99.0352C149.986 101.541 146.566 102.949 143 102.949H121.625C118.059 102.949 114.639 101.541 112.119 99.0352C109.599 96.5298 108.184 93.1328 108.184 89.5916V68.3416C108.184 64.8005 109.599 61.4034 112.119 58.898C114.639 56.3925 118.059 54.984 121.625 54.984ZM79.684 62.0673H92.316V102.949H79.684V62.0673ZM79.684 33.734H92.316V46.2826H79.684V33.734Z" stroke="#82D9FF" stroke-width="1.61806"/>
</g>
<g filter="url(#filter4_f)">
<path d="M121.625 67.9371H121.22V68.3416V89.5916V89.9961H121.625H143H143.405V89.5916V68.3416V67.9371H143H121.625ZM50.375 61.2583V61.6628C54.0478 61.6628 57.5697 63.1133 60.1661 65.6945C62.7623 68.2756 64.2205 71.7758 64.2205 75.425V89.5916C64.2205 93.2408 62.7623 96.741 60.1661 99.3221C57.5697 101.903 54.0478 103.354 50.375 103.354H15.1545V19.1628H50.375C54.0478 19.1628 57.5697 20.6133 60.1661 23.1945C62.7623 25.7756 64.2205 29.2758 64.2205 32.925V47.0916C64.2205 50.7408 62.7623 54.241 60.1661 56.8221C57.5697 59.4033 54.0478 60.8538 50.375 60.8538V61.2583ZM29 32.5205H28.5955V32.925V54.175V54.5795H29H50.375H50.7795V54.175V32.925V32.5205H50.375H29ZM28.5955 89.5916V89.9961H29H50.375H50.7795V89.5916V68.3416V67.9371H50.375H29H28.5955V68.3416V89.5916ZM121.625 54.5795H143C146.673 54.5795 150.195 56.03 152.791 58.6112C155.387 61.1922 156.845 64.6924 156.845 68.3416V89.5916C156.845 93.2408 155.387 96.741 152.791 99.3221C150.195 101.903 146.673 103.354 143 103.354H121.625C117.952 103.354 114.43 101.903 111.834 99.3221C109.238 96.741 107.78 93.2408 107.78 89.5916V68.3416C107.78 64.6924 109.238 61.1922 111.834 58.6112C114.43 56.03 117.952 54.5795 121.625 54.5795ZM79.2795 61.6628H92.7205V103.354H79.2795V61.6628ZM79.2795 33.3295H92.7205V46.6871H79.2795V33.3295Z" stroke="white" stroke-width="0.809028"/>
</g>
<defs>
<filter id="filter0_f" x="-3.45312" y="0.555176" width="178.906" height="121.406" filterUnits="userSpaceOnUse" color-interpolation-filters="sRGB">
<feFlood flood-opacity="0" result="BackgroundImageFix"/>
<feBlend mode="normal" in="SourceGraphic" in2="BackgroundImageFix" result="shape"/>
<feGaussianBlur stdDeviation="9.10156" result="effect1_foregroundBlur"/>
</filter>
<filter id="filter1_f" x="8.68229" y="12.6906" width="154.635" height="97.1354" filterUnits="userSpaceOnUse" color-interpolation-filters="sRGB">
<feFlood flood-opacity="0" result="BackgroundImageFix"/>
<feBlend mode="normal" in="SourceGraphic" in2="BackgroundImageFix" result="shape"/>
<feGaussianBlur stdDeviation="3.03385" result="effect1_foregroundBlur"/>
</filter>
<filter id="filter2_ddi" x="6.86198" y="16.938" width="158.276" height="100.776" filterUnits="userSpaceOnUse" color-interpolation-filters="sRGB">
<feFlood flood-opacity="0" result="BackgroundImageFix"/>
<feColorMatrix in="SourceAlpha" type="matrix" values="0 0 0 0 0 0 0 0 0 0 0 0 0 0 0 0 0 0 127 0" result="hardAlpha"/>
<feOffset dy="2.62934"/>
<feGaussianBlur stdDeviation="1.01128"/>
<feColorMatrix type="matrix" values="0 0 0 0 0 0 0 0 0 0.051 0 0 0 0 0.082 0 0 0 0.7 0"/>
<feBlend mode="multiply" in2="BackgroundImageFix" result="effect1_dropShadow"/>
<feColorMatrix in="SourceAlpha" type="matrix" values="0 0 0 0 0 0 0 0 0 0 0 0 0 0 0 0 0 0 127 0" result="hardAlpha"/>
<feOffset dy="6.06771"/>
<feGaussianBlur stdDeviation="3.94401"/>
<feColorMatrix type="matrix" values="0 0 0 0 0 0 0 0 0 0.4 0 0 0 0 1 0 0 0 1 0"/>
<feBlend mode="color-dodge" in2="effect1_dropShadow" result="effect2_dropShadow"/>
<feBlend mode="normal" in="SourceGraphic" in2="effect2_dropShadow" result="shape"/>
<feColorMatrix in="SourceAlpha" type="matrix" values="0 0 0 0 0 0 0 0 0 0 0 0 0 0 0 0 0 0 127 0" result="hardAlpha"/>
<feOffset dx="-0.262934" dy="0.525868"/>
<feGaussianBlur stdDeviation="0.131467"/>
<feComposite in2="hardAlpha" operator="arithmetic" k2="-1" k3="1"/>
<feColorMatrix type="matrix" values="0 0 0 0 1 0 0 0 0 1 0 0 0 0 1 0 0 0 0.5 0"/>
<feBlend mode="normal" in2="shape" result="effect3_innerShadow"/>
</filter>
<filter id="filter3_f" x="14.3455" y="18.3538" width="143.309" height="85.809" filterUnits="userSpaceOnUse" color-interpolation-filters="sRGB">
<feFlood flood-opacity="0" result="BackgroundImageFix"/>
<feBlend mode="normal" in="SourceGraphic" in2="BackgroundImageFix" result="shape"/>
<feGaussianBlur stdDeviation="0.202257" result="effect1_foregroundBlur"/>
</filter>
<filter id="filter4_f" x="14.4803" y="18.4886" width="143.039" height="85.5393" filterUnits="userSpaceOnUse" color-interpolation-filters="sRGB">
<feFlood flood-opacity="0" result="BackgroundImageFix"/>
<feBlend mode="normal" in="SourceGraphic" in2="BackgroundImageFix" result="shape"/>
<feGaussianBlur stdDeviation="0.134838" result="effect1_foregroundBlur"/>
</filter>
</defs>
</svg>
