<svg width="21" height="16" viewBox="0 0 21 16" fill="none" xmlns="http://www.w3.org/2000/svg">
<path d="M7.92925 13.9008L2.35893 8.36016C2.32681 8.32821 2.30132 8.29023 2.28392 8.2484C2.26652 8.20657 2.25757 8.16171 2.25757 8.11641C2.25757 8.0711 2.26652 8.02625 2.28392 7.98441C2.30132 7.94258 2.32681 7.9046 2.35893 7.87266L3.76518 6.46485C3.89956 6.33047 4.11675 6.33047 4.25112 6.46485L7.91831 10.1102C8.05268 10.2445 8.27143 10.243 8.40581 10.1086L16.5089 1.92734C16.6433 1.79141 16.8621 1.79141 16.998 1.92578L18.4058 3.33359C18.5402 3.46797 18.5402 3.68516 18.4074 3.81953L9.57925 12.7273L9.58081 12.7289L8.41675 13.8992C8.28237 14.0336 8.06362 14.0336 7.92925 13.9008Z" fill="#40C0E7" stroke="#40C0E7" stroke-width="3" stroke-miterlimit="10" stroke-linejoin="round"/>
</svg>
