<svg width="136" height="136" viewBox="0 0 136 136" fill="none" xmlns="http://www.w3.org/2000/svg">
<g clip-path="url(#clip0)">
<g style="mix-blend-mode:hard-light" filter="url(#filter0_f)">
<path d="M51.0021 15.0306H44.4715V10.4694H91.5327V15.0306H85.0021H83.0327V17V58.1188V58.7592L83.4093 59.2771L111.866 98.4071H111.861L114.137 101.535C115.777 103.789 116.761 106.453 116.981 109.231C117.201 112.01 116.648 114.795 115.383 117.279C114.119 119.763 112.191 121.848 109.815 123.305C107.438 124.761 104.705 125.531 101.918 125.531H101.917H34.0828H34.0823C31.295 125.531 28.5618 124.761 26.1853 123.305C23.8087 121.848 21.8813 119.763 20.6164 117.279C19.3516 114.795 18.7985 112.01 19.0185 109.231C19.2385 106.453 20.2229 103.789 21.8628 101.535L21.8631 101.535L52.5948 59.2771L52.9715 58.7592V58.1188V17V15.0306H51.0021ZM59.5021 15.0306H57.5326V17V60.2408L46.5491 75.3416L44.2741 78.4694H48.1418H87.8623H91.7301L89.455 75.3416L78.4715 60.2408V17V15.0306H76.5021H59.5021ZM101.921 120.969H101.923C103.868 120.967 105.775 120.428 107.432 119.411C109.09 118.394 110.434 116.938 111.317 115.205C112.199 113.472 112.586 111.529 112.434 109.59C112.282 107.652 111.598 105.792 110.456 104.218L110.454 104.216L95.6345 83.8415L95.0446 83.0306H94.0418H41.9623H40.9594L40.3695 83.8418L25.554 104.216L25.5526 104.218C24.4107 105.792 23.7261 107.652 23.5741 109.59C23.4222 111.529 23.8089 113.472 24.6916 115.205C25.5743 116.938 26.9186 118.394 28.5762 119.411C30.2338 120.428 32.1402 120.967 34.085 120.969H34.0871H101.921Z" stroke="#0094FF" stroke-width="3.93886"/>
</g>
<g style="mix-blend-mode:hard-light" filter="url(#filter1_f)">
<path d="M51.0021 14.4246H45.0775V11.0754H90.9267V14.4246H85.0021H82.4267V17V58.1188V58.9562L82.9192 59.6335L110.676 97.8011H110.671L113.647 101.892C115.221 104.055 116.166 106.612 116.377 109.279C116.588 111.946 116.058 114.62 114.843 117.004C113.629 119.388 111.779 121.39 109.498 122.788C107.217 124.186 104.593 124.925 101.918 124.925H101.917H34.0828H34.0822C31.4067 124.925 28.7831 124.186 26.5019 122.788C24.2206 121.39 22.3705 119.388 21.1564 117.004C19.9423 114.62 19.4114 111.946 19.6226 109.279C19.8337 106.612 20.7787 104.055 22.3528 101.892L22.3532 101.891L53.0849 59.6335L53.5775 58.9562V58.1188V17V14.4246H51.0021ZM59.5021 14.4246H56.9267V17V60.0437L46.0591 74.9851L43.084 79.0754H48.1418H87.8623H92.9202L89.9451 74.9851L79.0775 60.0437V17V14.4246H76.5021H59.5021ZM101.921 121.575H101.924C103.981 121.573 105.996 121.003 107.749 119.927C109.502 118.852 110.923 117.313 111.857 115.48C112.79 113.648 113.199 111.593 113.038 109.543C112.878 107.493 112.154 105.527 110.946 103.862L110.944 103.86L96.1246 83.4851L95.3532 82.4246H94.0418H41.9623H40.6507L39.8794 83.4854L25.0639 103.86L25.0621 103.862C23.8547 105.527 23.1307 107.493 22.97 109.543C22.8094 111.593 23.2183 113.648 24.1517 115.48C25.085 117.313 26.5065 118.852 28.2593 119.927C30.012 121.003 32.0279 121.573 34.0843 121.575H34.0871H101.921Z" stroke="#0094FF" stroke-width="5.15082"/>
</g>
<g style="mix-blend-mode:hard-light" filter="url(#filter2_ddi)">
<path d="M51.0021 15.0306H44.4715V10.4694H91.5327V15.0306H85.0021H83.0327V17V58.1188V58.7592L83.4093 59.2771L111.866 98.4071H111.861L114.137 101.535C115.777 103.789 116.761 106.453 116.981 109.231C117.201 112.01 116.648 114.795 115.383 117.279C114.119 119.763 112.191 121.848 109.815 123.305C107.438 124.761 104.705 125.531 101.918 125.531H101.917H34.0828H34.0823C31.295 125.531 28.5618 124.761 26.1853 123.305C23.8087 121.848 21.8813 119.763 20.6164 117.279C19.3516 114.795 18.7985 112.01 19.0185 109.231C19.2385 106.453 20.2229 103.789 21.8628 101.535L21.8631 101.535L52.5948 59.2771L52.9715 58.7592V58.1188V17V15.0306H51.0021ZM59.5021 15.0306H57.5326V17V60.2408L46.5491 75.3416L44.2741 78.4694H48.1418H87.8623H91.7301L89.455 75.3416L78.4715 60.2408V17V15.0306H76.5021H59.5021ZM101.921 120.969H101.923C103.868 120.967 105.775 120.428 107.432 119.411C109.09 118.394 110.434 116.938 111.317 115.205C112.199 113.472 112.586 111.529 112.434 109.59C112.282 107.652 111.598 105.792 110.456 104.218L110.454 104.216L95.6345 83.8415L95.0446 83.0306H94.0418H41.9623H40.9594L40.3695 83.8418L25.554 104.216L25.5526 104.218C24.4107 105.792 23.7261 107.652 23.5741 109.59C23.4222 111.529 23.8089 113.472 24.6916 115.205C25.5743 116.938 26.9186 118.394 28.5762 119.411C30.2338 120.428 32.1402 120.967 34.085 120.969H34.0871H101.921Z" stroke="#00B3FF" stroke-opacity="0.2" stroke-width="3.93886"/>
</g>
<g filter="url(#filter3_f)">
<path d="M51.0021 15.788H43.714V9.71196H92.2901V15.788H85.0021H83.7901V17V58.1188V58.5128L84.0219 58.8316L113.354 99.1645H113.349L114.75 101.09C116.472 103.456 117.506 106.254 117.737 109.171C117.968 112.089 117.387 115.014 116.058 117.623C114.73 120.231 112.706 122.421 110.21 123.95C107.715 125.48 104.844 126.289 101.917 126.288H101.917H34.0828H34.0825C31.1555 126.289 28.2852 125.48 25.7895 123.95C23.2937 122.421 21.2697 120.231 19.9414 117.623C18.6132 115.014 18.0324 112.089 18.2634 109.171C18.4944 106.254 19.5282 103.456 21.2503 101.09L21.2505 101.089L51.9822 58.8316L52.214 58.5128V58.1188V17V15.788H51.0021ZM59.5021 15.788H58.2901V17V60.4871L47.1617 75.7871L45.7617 77.712H48.1418H87.8623H90.2425L88.8425 75.7871L77.714 60.4871V17V15.788H76.5021H59.5021ZM101.921 120.212H101.923C103.728 120.21 105.497 119.709 107.036 118.765C108.575 117.821 109.823 116.47 110.642 114.862C111.461 113.253 111.82 111.449 111.679 109.65C111.538 107.85 110.903 106.124 109.843 104.663L109.842 104.662L95.0219 84.2871L94.659 83.788H94.0418H41.9623H41.3451L40.9821 84.2872L26.1666 104.662L26.1658 104.663C25.1059 106.124 24.4703 107.85 24.3293 109.65C24.1883 111.449 24.5472 113.253 25.3666 114.862C26.1859 116.47 27.4338 117.821 28.9724 118.765C30.511 119.709 32.2806 120.21 34.0858 120.212H34.0871H101.921Z" stroke="#82D9FF" stroke-width="2.42391"/>
</g>
<g filter="url(#filter4_f)">
<path d="M51.0021 16.394H43.1081V9.10598H92.8961V16.394H85.0021H84.3961V17V58.1188V58.3158L84.512 58.4752L114.544 99.7705H114.539L115.24 100.733C117.028 103.19 118.101 106.094 118.341 109.124C118.58 112.153 117.977 115.19 116.598 117.898C115.219 120.606 113.118 122.879 110.527 124.467C107.936 126.055 104.956 126.895 101.917 126.894H101.917H34.0828H34.0827C31.0438 126.895 28.064 126.055 25.4729 124.467C22.8818 122.879 20.7805 120.606 19.4015 117.898C18.0224 115.19 17.4195 112.153 17.6593 109.124C17.8991 106.094 18.9724 103.19 20.7603 100.733L20.7604 100.733L51.4922 58.4752L51.6081 58.3158V58.1188V17V16.394H51.0021ZM59.5021 16.394H58.8961V17V60.6842L47.6518 76.1436L46.9518 77.106H48.1418H87.8623H89.0524L88.3524 76.1436L77.1081 60.6842V17V16.394H76.5021H59.5021ZM101.921 119.606H101.922C103.616 119.604 105.276 119.134 106.719 118.249C108.163 117.363 109.333 116.096 110.102 114.587C110.871 113.077 111.207 111.385 111.075 109.697C110.943 108.009 110.346 106.39 109.352 105.019L109.352 105.018L94.5319 84.6435L94.3504 84.394H94.0418H41.9623H41.6537L41.4722 84.6436L26.6567 105.018L26.6563 105.019C25.662 106.39 25.0657 108.009 24.9334 109.697C24.8011 111.385 25.1379 113.077 25.9065 114.587C26.6752 116.096 27.8459 117.363 29.2893 118.249C30.7328 119.134 32.3929 119.604 34.0864 119.606H34.0871H101.921Z" stroke="white" stroke-width="1.21196"/>
</g>
</g>
<defs>
<filter id="filter0_f" x="-10.2671" y="-18.769" width="156.534" height="173.538" filterUnits="userSpaceOnUse" color-interpolation-filters="sRGB">
<feFlood flood-opacity="0" result="BackgroundImageFix"/>
<feBlend mode="normal" in="SourceGraphic" in2="BackgroundImageFix" result="shape"/>
<feGaussianBlur stdDeviation="13.6345" result="effect1_foregroundBlur"/>
</filter>
<filter id="filter1_f" x="7.91227" y="-0.58968" width="120.175" height="137.179" filterUnits="userSpaceOnUse" color-interpolation-filters="sRGB">
<feFlood flood-opacity="0" result="BackgroundImageFix"/>
<feBlend mode="normal" in="SourceGraphic" in2="BackgroundImageFix" result="shape"/>
<feGaussianBlur stdDeviation="4.54484" result="effect1_foregroundBlur"/>
</filter>
<filter id="filter2_ddi" x="5.18537" y="5.7731" width="125.629" height="142.633" filterUnits="userSpaceOnUse" color-interpolation-filters="sRGB">
<feFlood flood-opacity="0" result="BackgroundImageFix"/>
<feColorMatrix in="SourceAlpha" type="matrix" values="0 0 0 0 0 0 0 0 0 0 0 0 0 0 0 0 0 0 127 0" result="hardAlpha"/>
<feOffset dy="3.93886"/>
<feGaussianBlur stdDeviation="1.51495"/>
<feColorMatrix type="matrix" values="0 0 0 0 0 0 0 0 0 0.051 0 0 0 0 0.082 0 0 0 0.7 0"/>
<feBlend mode="multiply" in2="BackgroundImageFix" result="effect1_dropShadow"/>
<feColorMatrix in="SourceAlpha" type="matrix" values="0 0 0 0 0 0 0 0 0 0 0 0 0 0 0 0 0 0 127 0" result="hardAlpha"/>
<feOffset dy="9.08968"/>
<feGaussianBlur stdDeviation="5.90829"/>
<feColorMatrix type="matrix" values="0 0 0 0 0 0 0 0 0 0.4 0 0 0 0 1 0 0 0 1 0"/>
<feBlend mode="color-dodge" in2="effect1_dropShadow" result="effect2_dropShadow"/>
<feBlend mode="normal" in="SourceGraphic" in2="effect2_dropShadow" result="shape"/>
<feColorMatrix in="SourceAlpha" type="matrix" values="0 0 0 0 0 0 0 0 0 0 0 0 0 0 0 0 0 0 127 0" result="hardAlpha"/>
<feOffset dx="-0.393886" dy="0.787772"/>
<feGaussianBlur stdDeviation="0.196943"/>
<feComposite in2="hardAlpha" operator="arithmetic" k2="-1" k3="1"/>
<feColorMatrix type="matrix" values="0 0 0 0 1 0 0 0 0 1 0 0 0 0 1 0 0 0 0.5 0"/>
<feBlend mode="normal" in2="shape" result="effect3_innerShadow"/>
</filter>
<filter id="filter3_f" x="16.396" y="7.89402" width="103.208" height="120.212" filterUnits="userSpaceOnUse" color-interpolation-filters="sRGB">
<feFlood flood-opacity="0" result="BackgroundImageFix"/>
<feBlend mode="normal" in="SourceGraphic" in2="BackgroundImageFix" result="shape"/>
<feGaussianBlur stdDeviation="0.302989" result="effect1_foregroundBlur"/>
</filter>
<filter id="filter4_f" x="16.598" y="8.09601" width="102.804" height="119.808" filterUnits="userSpaceOnUse" color-interpolation-filters="sRGB">
<feFlood flood-opacity="0" result="BackgroundImageFix"/>
<feBlend mode="normal" in="SourceGraphic" in2="BackgroundImageFix" result="shape"/>
<feGaussianBlur stdDeviation="0.201993" result="effect1_foregroundBlur"/>
</filter>
<clipPath id="clip0">
<rect width="136" height="136" fill="white"/>
</clipPath>
</defs>
</svg>
