<svg width="69" height="46" viewBox="0 0 69 46" fill="none" xmlns="http://www.w3.org/2000/svg">
<path d="M47.1131 23.5547L64.541 8.41339V38.5232L47.1131 23.5547ZM24.6561 26.1189L30.7761 31.4314C31.7366 32.2474 32.9889 32.7404 34.3574 32.7404H34.4056H34.4028H34.4424C35.8138 32.7404 37.0661 32.2446 38.0379 31.4229L38.0294 31.4286L44.1494 26.1161L62.7531 42.0932H6.06095L24.6561 26.1189ZM6.03545 4.82355H62.7871L35.5276 28.4989C35.2211 28.7413 34.8417 28.8731 34.451 28.8729H34.4113H34.4141H34.3745C33.9823 28.8734 33.6016 28.7405 33.2949 28.4961L33.2978 28.4989L6.03545 4.82355ZM4.27595 8.41055L21.7009 23.5519L4.27595 38.5119V8.41055ZM65.476 1.49439C64.796 1.15439 63.9969 0.956055 63.1498 0.956055H5.67561C4.8544 0.956251 4.04448 1.14733 3.30978 1.51422L3.34095 1.50005C2.46141 1.93387 1.7207 2.60499 1.2025 3.43762C0.684302 4.27024 0.409261 5.23118 0.408447 6.21189L0.408447 40.6992C0.409947 42.0949 0.965062 43.4331 1.95199 44.42C2.93892 45.4069 4.27705 45.9621 5.67278 45.9636H63.1413C64.537 45.9621 65.8751 45.4069 66.8621 44.42C67.849 43.4331 68.4041 42.0949 68.4056 40.6992V6.22322V6.21189C68.4056 4.15205 67.2185 2.36706 65.4901 1.50856L65.4589 1.49439H65.476Z" fill="#4EB1F6"/>
</svg>
