<svg width="68" height="68" viewBox="0 0 68 68" fill="none" xmlns="http://www.w3.org/2000/svg">
<circle cx="33.7286" cy="33.7286" r="33.7286" fill="#4EB1F6"/>
<g clip-path="url(#clip0)">
<path d="M33.7285 10.3164C27.3683 10.3164 26.5743 10.3457 24.0771 10.4569C21.5837 10.5739 19.8864 10.9661 18.3939 11.5455C16.8546 12.1425 15.5474 12.9444 14.2461 14.2457C12.9448 15.5469 12.141 16.8521 11.546 18.3934C10.9666 19.8859 10.5725 21.5832 10.4574 24.0766C10.3403 26.5738 10.3169 27.3679 10.3169 33.728C10.3169 40.0882 10.3462 40.8822 10.4574 43.3794C10.5744 45.8708 10.9666 47.5701 11.546 49.0626C12.1338 50.625 13.0553 52.0405 14.2461 53.2104C15.4153 54.4021 16.831 55.3237 18.3939 55.9105C19.8883 56.488 21.5857 56.884 24.0771 56.9991C26.5743 57.1162 27.3683 57.1396 33.7285 57.1396C40.0886 57.1396 40.8827 57.1103 43.3799 56.9991C45.8713 56.8821 47.5706 56.488 49.0631 55.9105C50.6252 55.322 52.0405 54.4006 53.2109 53.2104C54.403 52.0415 55.3246 50.6258 55.911 49.0626C56.4885 47.5701 56.8845 45.8708 56.9996 43.3794C57.1167 40.8822 57.1401 40.0882 57.1401 33.728C57.1401 27.3679 57.1108 26.5738 56.9996 24.0766C56.8826 21.5852 56.4885 19.8839 55.911 18.3934C55.3229 16.8311 54.4015 15.4157 53.2109 14.2457C52.0425 13.0529 50.6266 12.1312 49.0631 11.5455C47.5706 10.9661 45.8713 10.572 43.3799 10.4569C40.8827 10.3398 40.0886 10.3164 33.7285 10.3164ZM33.7285 14.5305C39.9774 14.5305 40.7227 14.5617 43.1907 14.669C45.4733 14.7763 46.7122 15.1548 47.5355 15.4787C48.6319 15.902 49.4084 16.4093 50.2317 17.2267C51.0492 18.0461 51.5564 18.8246 51.9798 19.921C52.2998 20.7443 52.6821 21.9832 52.7855 24.2658C52.8967 26.7357 52.9221 27.4771 52.9221 33.728C52.9221 39.9789 52.8928 40.7222 52.7777 43.1902C52.6587 45.4728 52.2783 46.7117 51.9564 47.535C51.5755 48.551 50.9769 49.4713 50.2025 50.2312C49.4457 51.0064 48.5261 51.6035 47.5101 51.9793C46.6907 52.2993 45.4324 52.6817 43.1497 52.7851C40.6642 52.8963 39.9326 52.9216 33.67 52.9216C27.4054 52.9216 26.6738 52.8924 24.1902 52.7773C21.9056 52.6582 20.6473 52.2778 19.8279 51.9559C18.8112 51.5797 17.8919 50.9804 17.1375 50.202C16.3543 49.4503 15.7537 48.5294 15.3816 47.5096C15.0597 46.6902 14.6812 45.4319 14.5622 43.1492C14.4744 40.691 14.4432 39.9321 14.4432 33.6987C14.4432 27.4635 14.4744 26.7026 14.5622 24.2151C14.6812 21.9325 15.0597 20.676 15.3816 19.8566C15.7913 18.7446 16.3161 17.9837 17.1375 17.1623C17.9549 16.3449 18.7178 15.8181 19.8279 15.4104C20.6473 15.0865 21.8783 14.7061 24.161 14.589C26.6484 14.5012 27.3801 14.472 33.6407 14.472L33.7285 14.5305ZM33.7285 21.7062C32.1498 21.7062 30.5865 22.0171 29.1279 22.6213C27.6694 23.2254 26.3441 24.1109 25.2278 25.2273C24.1114 26.3436 23.2259 27.6689 22.6217 29.1274C22.0176 30.586 21.7066 32.1493 21.7066 33.728C21.7066 35.3067 22.0176 36.87 22.6217 38.3286C23.2259 39.7871 24.1114 41.1124 25.2278 42.2287C26.3441 43.3451 27.6694 44.2306 29.1279 44.8348C30.5865 45.4389 32.1498 45.7499 33.7285 45.7499C36.9169 45.7499 39.9747 44.4833 42.2292 42.2287C44.4838 39.9742 45.7504 36.9164 45.7504 33.728C45.7504 30.5396 44.4838 27.4818 42.2292 25.2273C39.9747 22.9727 36.9169 21.7062 33.7285 21.7062ZM33.7285 41.5319C29.4169 41.5319 25.9246 38.0396 25.9246 33.728C25.9246 29.4164 29.4169 25.9241 33.7285 25.9241C38.0401 25.9241 41.5324 29.4164 41.5324 33.728C41.5324 38.0396 38.0401 41.5319 33.7285 41.5319ZM49.0358 21.2321C49.0087 21.959 48.7008 22.6472 48.1769 23.152C47.653 23.6567 46.9539 23.9387 46.2264 23.9387C45.4989 23.9387 44.7997 23.6567 44.2758 23.152C43.7519 22.6472 43.4441 21.959 43.417 21.2321C43.417 20.487 43.713 19.7724 44.2399 19.2455C44.7667 18.7187 45.4813 18.4227 46.2264 18.4227C46.9715 18.4227 47.6861 18.7187 48.2129 19.2455C48.7398 19.7724 49.0358 20.487 49.0358 21.2321Z" fill="white"/>
</g>
<defs>
<clipPath id="clip0">
<rect width="46.8232" height="46.8232" fill="white" transform="translate(10.3169 10.3164)"/>
</clipPath>
</defs>
</svg>
