<svg width="68" height="68" viewBox="0 0 68 68" fill="none" xmlns="http://www.w3.org/2000/svg">
<path d="M32.2999 0C26.8401 0.0793333 15.1101 0.974667 8.55657 6.98983C3.68891 11.8632 1.97191 18.9833 1.79341 27.8148C1.61491 36.6435 1.38257 53.1987 17.3399 57.6867H17.3484L17.3371 64.532C17.3371 64.532 17.2322 67.3002 19.0654 67.8668C21.2669 68.5525 22.5617 66.4502 24.6754 64.1778C25.8286 62.9312 27.4294 61.1065 28.6336 59.7012C39.5419 60.6248 47.9342 58.5225 48.8919 58.2137C51.0906 57.4997 63.5572 55.9017 65.5859 39.3522C67.6826 22.2955 64.5659 11.5005 58.9559 6.6385C57.2672 5.08017 50.4389 0.121833 35.2267 0.0566667C35.2267 0.0566667 34.1076 -0.0141667 32.2886 0.0085L32.2999 0ZM32.4642 4.79683C34.0084 4.7855 34.9576 4.845 34.9576 4.845C47.8266 4.90167 53.9891 8.77767 55.4199 10.0753C60.1657 14.1412 62.5882 23.868 60.8202 38.1168V38.1225C59.1089 51.9435 48.9939 52.8105 47.1296 53.4083C46.3362 53.6633 38.9639 55.4965 29.6961 54.893C29.6961 54.893 22.7941 63.223 20.6379 65.3877C20.2979 65.7277 19.9012 65.8608 19.6406 65.7957C19.2722 65.7022 19.1702 65.263 19.1731 64.6227L19.2297 53.2383C5.73741 49.4983 6.52224 35.411 6.67807 28.0358C6.83107 20.6578 8.21657 14.6115 12.3334 10.5457C17.8867 5.52217 27.8431 4.828 32.4784 4.794L32.4642 4.79683ZM33.5409 12.1692C33.3212 12.1802 33.1141 12.2749 32.962 12.4338C32.81 12.5927 32.7244 12.8038 32.723 13.0237C32.7215 13.2437 32.8043 13.4558 32.9543 13.6167C33.1042 13.7776 33.3101 13.875 33.5296 13.889C38.1309 13.9173 41.8766 15.4105 44.9422 18.3997C47.9824 21.3633 49.5322 25.3923 49.5691 30.6793C49.5747 31.1525 49.9657 31.5293 50.4389 31.5293C50.6654 31.5264 50.8816 31.4343 51.0407 31.2731C51.1997 31.1119 51.2889 30.8945 51.2889 30.668C51.2492 25.0467 49.5379 20.4793 46.1436 17.17C42.7719 13.8833 38.5162 12.2032 33.5437 12.1692H33.5409ZM22.3209 14.1383C21.7185 14.0549 21.1054 14.1714 20.5756 14.4698L20.5472 14.4755C19.3289 15.1753 18.2352 16.0678 17.3002 17.1162C17.2946 17.1275 17.2832 17.1275 17.2776 17.1388C16.5211 18.054 16.0876 18.9465 15.9742 19.8248C15.952 19.9558 15.9454 20.089 15.9544 20.2215C15.9544 20.6068 16.0167 20.9865 16.1386 21.3548L16.1754 21.3832C16.5579 22.7432 17.5156 24.9985 19.5896 28.7612C20.7796 30.9372 22.1481 33.0112 23.6866 34.9548C24.4516 35.9295 25.2732 36.8617 26.1516 37.7428L26.5256 38.1168C27.4039 38.9895 28.3389 39.8168 29.3136 40.5818C31.2588 42.1206 33.3308 43.4921 35.5072 44.6817C39.2699 46.7585 41.5309 47.7133 42.8852 48.0987L42.9136 48.1383C43.4065 48.2995 43.9283 48.3526 44.4436 48.2942C45.3219 48.1922 46.2201 47.7558 47.1296 46.9908C47.1409 46.9908 47.1381 46.9852 47.1522 46.9767C48.2006 46.0417 49.0874 44.9367 49.7872 43.724L49.7957 43.6957C50.4332 42.4717 50.2207 41.31 49.2857 40.5223C49.2744 40.5223 47.3081 38.879 46.3476 38.1707C45.3276 37.4482 44.2792 36.7767 43.1941 36.159C41.7491 35.3515 40.2701 35.8587 39.6581 36.652L38.3916 38.25C37.7399 39.0518 36.5301 38.947 36.5301 38.947C27.6901 36.6917 25.3242 27.7412 25.3242 27.7412C25.3242 27.7412 25.2194 26.5342 26.0269 25.8825L27.6221 24.6132C28.4069 24.004 28.9141 22.525 28.1037 21.0772C27.4883 19.99 26.8169 18.9355 26.0921 17.918C25.3312 16.9223 24.5471 15.9445 23.7404 14.9855C23.3851 14.5406 22.8791 14.2412 22.3181 14.144L22.3209 14.1383ZM35.0426 16.6317C34.8149 16.6249 34.5938 16.7089 34.4281 16.8651C34.2623 17.0213 34.1653 17.237 34.1586 17.4647C34.1518 17.6924 34.2358 17.9134 34.392 18.0792C34.5482 18.245 34.7639 18.3419 34.9916 18.3487C38.2782 18.5895 40.7064 19.669 42.4857 21.607C44.2707 23.5563 45.1207 25.925 45.0527 28.8887C45.0651 29.1066 45.1592 29.3118 45.3162 29.4633C45.4733 29.6149 45.6817 29.7017 45.8999 29.7063C46.1181 29.711 46.33 29.6332 46.4933 29.4884C46.6567 29.3437 46.7594 29.1427 46.7811 28.9255C46.8519 25.5963 45.8347 22.712 43.7579 20.4425C41.6612 18.1475 38.7231 16.8923 35.1162 16.6288H35.0482L35.0426 16.6317ZM36.3544 21.25C36.1362 21.2532 35.9274 21.3388 35.7697 21.4896C35.612 21.6405 35.5173 21.8454 35.5044 22.0632C35.4817 22.5363 35.8444 22.9415 36.3204 22.9698C37.8022 23.0492 38.7996 23.4657 39.4739 24.1655C40.1539 24.8597 40.5732 25.9222 40.6526 27.4635C40.6817 27.6771 40.79 27.872 40.9559 28.0097C41.1218 28.1474 41.3333 28.2179 41.5486 28.2072C41.764 28.1965 41.9675 28.1055 42.119 27.9521C42.2704 27.7986 42.3588 27.594 42.3667 27.3785C42.2817 25.5538 41.7576 24.0408 40.7234 22.967C39.6836 21.896 38.1932 21.3407 36.4167 21.2472H36.3657L36.3544 21.25Z" fill="#4EB1F6"/>
</svg>
