<svg width="69" height="68" viewBox="0 0 69 68" fill="none" xmlns="http://www.w3.org/2000/svg">
<g clip-path="url(#clip0)">
<circle cx="34.002" cy="34.207" r="34" fill="white"/>
<path d="M68.002 33.1465C68.002 14.37 52.7785 -0.853516 34.002 -0.853516C15.2255 -0.853516 0.00195312 14.37 0.00195312 33.1465C0.00195312 50.1181 12.4346 64.1828 28.6895 66.7328V42.9753H20.0563V33.1437H28.6895V25.658C28.6895 17.1382 33.7668 12.4292 41.533 12.4292C45.2503 12.4292 49.1433 13.095 49.1433 13.095V21.4618H44.8536C40.6291 21.4618 39.3116 24.0827 39.3116 26.7715V33.1465H48.741L47.2336 42.9781H39.3116V66.7356C55.5693 64.1828 68.002 50.1153 68.002 33.1465Z" fill="#4EB1F6"/>
</g>
<defs>
<clipPath id="clip0">
<rect width="68" height="68" fill="white" transform="translate(0.00195312)"/>
</clipPath>
</defs>
</svg>
