<svg width="69" height="68" viewBox="0 0 69 68" fill="none" xmlns="http://www.w3.org/2000/svg">
<g clip-path="url(#clip0)">
<path d="M33.8433 9.25557e-05C24.8534 0.0420456 16.2461 3.64269 9.90416 10.0144C3.5622 16.3861 0.00185524 25.0102 0.00195313 34.0001C0.00195313 43.0175 3.58409 51.6655 9.96032 58.0417C16.3366 64.418 24.9846 68.0001 34.002 68.0001C43.0193 68.0001 51.6673 64.418 58.0436 58.0417C64.4198 51.6655 68.002 43.0175 68.002 34.0001C68.002 24.9827 64.4198 16.3347 58.0436 9.95846C51.6673 3.58223 43.0193 9.25557e-05 34.002 9.25557e-05C33.9491 -3.08519e-05 33.8962 -3.08519e-05 33.8433 9.25557e-05ZM47.9023 20.4681C48.1856 20.4624 48.8118 20.5333 49.2198 20.8648C49.4909 21.1002 49.6638 21.4288 49.7043 21.7856C49.7496 22.0491 49.8063 22.6526 49.761 23.1229C49.251 28.5006 47.0353 41.5453 45.9076 47.5661C45.4316 50.1161 44.4938 50.9689 43.5843 51.0511C41.6123 51.2353 40.1135 49.7478 38.201 48.4954C35.209 46.5319 33.5175 45.3108 30.6133 43.3954C27.2558 41.1854 29.4318 39.9671 31.3443 37.9838C31.8458 37.4624 40.5441 29.5489 40.7141 28.8321C40.734 28.7414 40.7538 28.4071 40.5555 28.2314C40.3571 28.0558 40.0625 28.1153 39.85 28.1634C39.5496 28.2314 34.7698 31.3934 25.5105 37.6409C24.1505 38.5759 22.9236 39.0293 21.8215 39.0009C20.6088 38.9783 18.2741 38.3181 16.5373 37.7543C14.4066 37.0601 12.7151 36.6946 12.8625 35.5188C12.939 34.9068 13.7833 34.2806 15.3926 33.6403C25.3036 29.3223 31.911 26.4748 35.2203 25.1006C44.661 21.1736 46.6245 20.4908 47.9023 20.4681Z" fill="#4EB1F6"/>
</g>
<defs>
<clipPath id="clip0">
<rect width="68" height="68" fill="white" transform="translate(0.00195312)"/>
</clipPath>
</defs>
</svg>
