<svg width="190" height="124" viewBox="0 0 190 124" fill="none" xmlns="http://www.w3.org/2000/svg">
<g style="mix-blend-mode:hard-light" filter="url(#filter0_f)">
<path d="M24.27 97.7626V99.3676H25.875H56.5824H58.1874V97.7626V87.1317V85.5267H56.5824H51.329L54.2069 77.9835H77.5819L80.2854 85.5267H75.4793H73.8743V87.1317V97.7626V99.3676H75.4793H106.808H108.413V97.7626V87.1317V85.5267H106.808H96.4873L74.1247 25.2319L73.7364 24.1851H72.6199H46.1394H44.5344V25.79V36.421V38.0259H46.1394H55.2341L36.8347 85.5267H25.875H24.27V87.1317V97.7626ZM112.04 97.7626V99.3676H113.645H160.017H161.326L161.589 98.0851L164.697 82.933L165.03 81.3087L163.396 81.0286L152.705 79.1957L151.141 78.9276L150.855 80.4879L149.729 86.6265H131.264L161.217 52.8829L161.622 52.4271V51.8175V44.1192V42.5142H160.017H114.64H113.324L113.066 43.8045L110.206 58.1012L109.894 59.6628L111.453 59.9873L122.02 62.1868L123.61 62.5176L123.922 60.9247L125.036 55.2554H142.02L112.446 88.509L112.04 88.9651V89.5756V97.7626ZM66.2298 44.0139L73.2681 65.609H58.7159L66.2298 44.0139Z" stroke="#0094FF" stroke-width="3.20995"/>
</g>
<g style="mix-blend-mode:hard-light" filter="url(#filter1_f)">
<path d="M23.7762 97.7626V99.8614H25.875H56.5824H58.6812V97.7626V87.1317V85.0329H56.5824H52.0459L54.547 78.4774H77.2343L79.5839 85.0329H75.4793H73.3805V87.1317V97.7626V99.8614H75.4793H106.808H108.907V97.7626V87.1317V85.0329H106.808H96.8308L74.5877 25.0602L74.08 23.6912H72.6199H46.1394H44.0406V25.79V36.421V38.5198H46.1394H54.5132L36.4964 85.0329H25.875H23.7762V87.1317V97.7626ZM111.546 97.7626V99.8614H113.645H160.017H161.729L162.073 98.1843L165.181 83.0322L165.617 80.9082L163.48 80.5418L152.788 78.7089L150.743 78.3584L150.369 80.3988L149.317 86.1326H132.363L161.587 53.2108L162.116 52.6146V51.8175V44.1192V42.0204H160.017H114.64H112.919L112.582 43.7076L109.722 58.0044L109.314 60.0464L111.353 60.4707L121.92 62.6703L123.998 63.1028L124.407 61.0198L125.442 55.7492H140.92L112.077 88.1808L111.546 88.7773V89.5756V97.7626ZM66.2145 45.5606L72.5878 65.1152H59.4106L66.2145 45.5606Z" stroke="#0094FF" stroke-width="4.19763"/>
</g>
<g style="mix-blend-mode:hard-light" filter="url(#filter2_ddi)">
<path d="M24.27 97.7626V99.3676H25.875H56.5824H58.1874V97.7626V87.1317V85.5267H56.5824H51.329L54.2069 77.9835H77.5819L80.2854 85.5267H75.4793H73.8743V87.1317V97.7626V99.3676H75.4793H106.808H108.413V97.7626V87.1317V85.5267H106.808H96.4873L74.1247 25.2319L73.7364 24.1851H72.6199H46.1394H44.5344V25.79V36.421V38.0259H46.1394H55.2341L36.8347 85.5267H25.875H24.27V87.1317V97.7626ZM112.04 97.7626V99.3676H113.645H160.017H161.326L161.589 98.0851L164.697 82.933L165.03 81.3087L163.396 81.0286L152.705 79.1957L151.141 78.9276L150.855 80.4879L149.729 86.6265H131.264L161.217 52.8829L161.622 52.4271V51.8175V44.1192V42.5142H160.017H114.64H113.324L113.066 43.8045L110.206 58.1012L109.894 59.6628L111.453 59.9873L122.02 62.1868L123.61 62.5176L123.922 60.9247L125.036 55.2554H142.02L112.446 88.509L112.04 88.9651V89.5756V97.7626ZM66.2298 44.0139L73.2681 65.609H58.7159L66.2298 44.0139Z" stroke="#00B3FF" stroke-opacity="0.2" stroke-width="3.20995"/>
</g>
<g filter="url(#filter3_f)">
<path d="M24.8873 97.7626V98.7503H25.875H56.5824H57.5701V97.7626V87.1317V86.144H56.5824H50.4328L53.7817 77.3662H78.0164L81.1624 86.144H75.4793H74.4916V87.1317V97.7626V98.7503H75.4793H106.808H107.796V97.7626V87.1317V86.144H106.808H96.0578L73.5459 25.4466L73.307 24.8024H72.6199H46.1394H45.1517V25.79V36.421V37.4086H46.1394H56.1352L37.2576 86.144H25.875H24.8873V87.1317V97.7626ZM112.657 97.7626V98.7503H113.645H160.017H160.823L160.984 97.9611L164.093 82.8089L164.298 81.8094L163.292 81.637L152.6 79.8041L151.638 79.6391L151.462 80.5993L150.243 87.2438H129.891L160.756 52.4731L161.005 52.1926V51.8175V44.1192V43.1315H160.017H114.64H113.83L113.671 43.9255L110.812 58.2223L110.62 59.1832L111.579 59.3829L122.146 61.5824L123.124 61.786L123.317 60.8058L124.528 54.6381H143.395L112.907 88.9192L112.657 89.1999V89.5756V97.7626ZM66.2489 42.0805L74.1186 66.2263H57.8475L66.2489 42.0805Z" stroke="#82D9FF" stroke-width="1.97536"/>
</g>
<g filter="url(#filter4_f)">
<path d="M25.3812 97.7626V98.2564H25.875H56.5824H57.0763V97.7626V87.1317V86.6378H56.5824H49.7158L53.4416 76.8724H78.364L81.864 86.6378H75.4793H74.9854V87.1317V97.7626V98.2564H75.4793H106.808H107.302V97.7626V87.1317V86.6378H106.808H95.7143L73.0829 25.6183L72.9634 25.2962H72.6199H46.1394H45.6456V25.79V36.421V36.9148H46.1394H56.8561L37.5959 86.6378H25.875H25.3812V87.1317V97.7626ZM113.151 97.7626V98.2564H113.645H160.017H160.42L160.501 97.8618L163.609 82.7097L163.711 82.2099L163.208 82.1237L152.517 80.2908L152.036 80.2083L151.948 80.6884L150.654 87.7376H128.792L160.386 52.1453L160.511 52.005V51.8175V44.1192V43.6254H160.017H114.64H114.235L114.155 44.0224L111.296 58.3191L111.2 58.7996L111.68 58.8994L122.247 61.099L122.736 61.2007L122.832 60.7106L124.121 54.1442H144.496L113.276 89.2474L113.151 89.3877V89.5756V97.7626ZM66.2642 40.5338L74.7989 66.7201H57.1528L66.2642 40.5338Z" stroke="white" stroke-width="0.987678"/>
</g>
<defs>
<filter id="filter0_f" x="0.442287" y="0.357327" width="188.716" height="122.838" filterUnits="userSpaceOnUse" color-interpolation-filters="sRGB">
<feFlood flood-opacity="0" result="BackgroundImageFix"/>
<feBlend mode="normal" in="SourceGraphic" in2="BackgroundImageFix" result="shape"/>
<feGaussianBlur stdDeviation="11.1114" result="effect1_foregroundBlur"/>
</filter>
<filter id="filter1_f" x="14.2697" y="14.1847" width="161.246" height="95.183" filterUnits="userSpaceOnUse" color-interpolation-filters="sRGB">
<feFlood flood-opacity="0" result="BackgroundImageFix"/>
<feBlend mode="normal" in="SourceGraphic" in2="BackgroundImageFix" result="shape"/>
<feGaussianBlur stdDeviation="3.70379" result="effect1_foregroundBlur"/>
</filter>
<filter id="filter2_ddi" x="13.0352" y="20.3578" width="163.53" height="97.6522" filterUnits="userSpaceOnUse" color-interpolation-filters="sRGB">
<feFlood flood-opacity="0" result="BackgroundImageFix"/>
<feColorMatrix in="SourceAlpha" type="matrix" values="0 0 0 0 0 0 0 0 0 0 0 0 0 0 0 0 0 0 127 0" result="hardAlpha"/>
<feOffset dy="3.20995"/>
<feGaussianBlur stdDeviation="1.2346"/>
<feColorMatrix type="matrix" values="0 0 0 0 0 0 0 0 0 0.051 0 0 0 0 0.082 0 0 0 0.7 0"/>
<feBlend mode="multiply" in2="BackgroundImageFix" result="effect1_dropShadow"/>
<feColorMatrix in="SourceAlpha" type="matrix" values="0 0 0 0 0 0 0 0 0 0 0 0 0 0 0 0 0 0 127 0" result="hardAlpha"/>
<feOffset dy="7.40758"/>
<feGaussianBlur stdDeviation="4.81493"/>
<feColorMatrix type="matrix" values="0 0 0 0 0 0 0 0 0 0.4 0 0 0 0 1 0 0 0 1 0"/>
<feBlend mode="color-dodge" in2="effect1_dropShadow" result="effect2_dropShadow"/>
<feBlend mode="normal" in="SourceGraphic" in2="effect2_dropShadow" result="shape"/>
<feColorMatrix in="SourceAlpha" type="matrix" values="0 0 0 0 0 0 0 0 0 0 0 0 0 0 0 0 0 0 127 0" result="hardAlpha"/>
<feOffset dx="-0.320995" dy="0.641991"/>
<feGaussianBlur stdDeviation="0.160498"/>
<feComposite in2="hardAlpha" operator="arithmetic" k2="-1" k3="1"/>
<feColorMatrix type="matrix" values="0 0 0 0 1 0 0 0 0 1 0 0 0 0 1 0 0 0 0.5 0"/>
<feBlend mode="normal" in2="shape" result="effect3_innerShadow"/>
</filter>
<filter id="filter3_f" x="23.4056" y="23.3206" width="142.558" height="76.911" filterUnits="userSpaceOnUse" color-interpolation-filters="sRGB">
<feFlood flood-opacity="0" result="BackgroundImageFix"/>
<feBlend mode="normal" in="SourceGraphic" in2="BackgroundImageFix" result="shape"/>
<feGaussianBlur stdDeviation="0.246919" result="effect1_foregroundBlur"/>
</filter>
<filter id="filter4_f" x="24.558" y="24.473" width="140.069" height="74.6064" filterUnits="userSpaceOnUse" color-interpolation-filters="sRGB">
<feFlood flood-opacity="0" result="BackgroundImageFix"/>
<feBlend mode="normal" in="SourceGraphic" in2="BackgroundImageFix" result="shape"/>
<feGaussianBlur stdDeviation="0.164613" result="effect1_foregroundBlur"/>
</filter>
</defs>
</svg>
