<svg width="40" height="40" viewBox="0 0 40 40" fill="none" xmlns="http://www.w3.org/2000/svg">
<g clip-path="url(#clip0)">
<circle cx="20" cy="20.1216" r="20" fill="white"/>
<path d="M40 20.1216C40 9.07658 31.045 0.121582 20 0.121582C8.955 0.121582 0 9.07658 0 20.1216C0 30.1049 7.31333 38.3783 16.875 39.8783V25.9032H11.7967V20.1199H16.875V15.7166C16.875 10.7049 19.8617 7.93492 24.43 7.93492C26.6167 7.93492 28.9067 8.32658 28.9067 8.32658V13.2482H26.3833C23.8983 13.2482 23.1233 14.7899 23.1233 16.3716V20.1216H28.67L27.7833 25.9049H23.1233V39.8799C32.6867 38.3783 40 30.1033 40 20.1216Z" fill="#4EB1F6"/>
</g>
<defs>
<clipPath id="clip0">
<rect width="40" height="40" fill="white"/>
</clipPath>
</defs>
</svg>
