<svg width="108" height="111" viewBox="0 0 108 111" fill="none" xmlns="http://www.w3.org/2000/svg">
<g clip-path="url(#clip0)">
<g style="mix-blend-mode:hard-light" filter="url(#filter0_f)">
<path d="M54.0004 98.772H54C53.4878 98.772 52.9305 98.7342 52.4506 98.7016C52.2429 98.6875 52.0496 98.6744 51.8808 98.6658L49.7354 98.5561L50.3983 96.5127L55.1131 81.9787L55.1145 81.9745C55.3656 81.2074 55.4422 80.3898 55.3375 79.5859C55.2329 78.782 54.9502 78.0163 54.514 77.3476L54.5116 77.3441L49.6786 69.8932L49.6775 69.8914C49.208 69.1656 48.5743 68.5753 47.8362 68.1691C47.0985 67.7631 46.2774 67.5525 45.4459 67.5533L45.4444 67.5533H32.1806H31.2858L30.7989 66.8025L25.9659 59.3517L25.5388 58.6932L25.7811 57.9468L27.8669 51.5226L28.2365 50.3842H29.4334H37.125H38.772V52.0312V57.3217H42.228V49.1903V48.8993L42.3278 48.6259L51.6824 22.9851L48.4381 21.7347L47.302 24.8462L46.9069 25.9283H45.7549H35.5557H34.661L34.174 25.1778L31.4504 20.9806L30.5494 19.5921L31.9424 18.698C36.7511 15.6115 42.1271 13.57 47.7383 12.7017C53.3496 11.8334 59.0745 12.1572 64.5584 13.6527L65.772 13.9837V15.2417L65.772 27.7484L65.772 27.75M54.0004 98.772L70.875 34.6875C69.0854 34.6857 67.3695 33.9542 66.104 32.6535C64.8385 31.3529 64.1268 29.5894 64.125 27.75H65.772M54.0004 98.772C59.6833 98.7707 65.3057 97.5855 70.5278 95.2894C75.7497 92.9933 80.4614 89.6347 84.3799 85.4188L85.0828 84.6626L84.7085 83.7004L79.7877 71.0533L79.6055 70.5849L79.1927 70.298L71.8858 65.2198L71.8267 65.1787L71.7642 65.1429C70.8455 64.6169 70.1014 63.8049 69.6429 62.813C69.1842 61.8206 69.0369 60.7026 69.2243 59.6165L69.2253 59.6106L71.2402 47.6746L71.2419 47.6644C71.4437 46.421 72.0677 45.301 72.9909 44.4999C73.913 43.6997 75.0743 43.2682 76.2664 43.272H76.2717H92.1375H94.4483L93.6944 41.0877C92.1646 36.6551 89.9398 32.5074 87.1068 28.8089L85.3518 26.5178L84.2719 29.1941L83.4413 31.2527M54.0004 98.772L51.0604 68.9969L55.8934 76.4478C56.4658 77.3252 56.8344 78.3261 56.9707 79.3732C57.1071 80.4203 57.0075 81.4856 56.6798 82.4869L52.4901 95.4019C52.3519 95.3929 52.2059 95.3841 52.049 95.3761L51.9649 97.0209L53.5315 97.5292L53.6643 97.1199C53.7759 97.1231 53.8878 97.125 54 97.125C59.4538 97.1237 64.8507 95.9864 69.8648 93.7817C74.879 91.577 79.4063 88.3507 83.1735 84.2976L78.2528 71.6505L70.9459 66.5722C69.7254 65.8735 68.7473 64.801 68.1478 63.504C67.5484 62.2071 67.3573 60.7502 67.6013 59.3364L69.6162 47.4005C69.8787 45.7829 70.6923 44.3139 71.9115 43.256C73.1306 42.198 74.676 41.6199 76.2717 41.625H90.391C90.4554 41.8036 90.5186 41.9827 90.5806 42.1623L92.1375 41.625V39.978H91.5306C90.3369 36.935 88.7969 34.0483 86.9428 31.3779L87.3266 30.4267L85.7993 29.8104L84.4918 30.812C84.6905 31.0714 84.886 31.3332 85.0782 31.5974L84.8475 32.1692M65.772 27.75C65.7738 29.1669 66.3227 30.5164 67.2845 31.505C68.2452 32.4924 69.5381 33.0391 70.8767 33.0405M65.772 27.75L70.8767 33.0405M70.8767 33.0405H79.6028H79.6074C80.2698 33.0423 80.9271 32.9091 81.5417 32.6474C82.1563 32.3856 82.7174 31.9997 83.1911 31.5099L83.1946 31.5063L83.4413 31.2527M70.8767 33.0405L79.6028 34.6875C80.4895 34.69 81.3679 34.5116 82.1871 34.1627C83.0063 33.8137 83.7499 33.3012 84.375 32.6548L84.8475 32.1692M83.4413 31.2527L83.3202 31.5529L84.8475 32.1692M83.4413 31.2527L83.6671 31.0206L84.8475 32.1692M71.5802 16.223L69.228 15.1087V17.7114V27.75V29.397H70.875H79.3227H80.4337L80.8498 28.3668L82.2437 24.9153L82.674 23.8498L81.8224 23.0781C78.7515 20.2955 75.3014 17.9859 71.5802 16.223ZM44.7841 97.7004L46.2526 98.0358L46.7174 96.603L51.844 80.7994L52.0862 80.0529L51.659 79.3946L46.826 71.9472L46.339 71.1967H45.4444H29.4644L21.7143 59.2441L25.7675 46.7408H38.1612H39.3134L39.7084 45.6583L44.7709 31.7833L45.5778 29.5717H43.2237H32.8393L28.7734 23.3019L27.7273 21.6887L26.2938 22.9701C20.421 28.2202 16.0861 35.0379 13.7661 42.6611C11.4461 50.2841 11.2304 58.418 13.1425 66.159C15.0546 73.9001 19.021 80.9493 24.6057 86.5196C30.1907 92.0902 37.1754 95.9629 44.7841 97.7004ZM72.626 60.2518L72.4412 61.3457L73.3855 61.9281L73.6848 62.1127L82.398 68.1653L86.4682 78.6267L87.645 81.6513L89.3914 78.9158C95.1623 69.8763 97.3494 58.9178 95.5121 48.2821L95.276 46.9155H93.8892H76.2717H74.8796L74.6477 48.2881L72.626 60.2518ZM28.6817 16.4794C36.1798 11.3302 44.9902 8.58471 53.999 8.58451C66.0749 8.59891 77.6615 13.5353 86.2146 22.3259C94.7693 31.1183 99.5892 43.0486 99.603 55.5018C99.6027 64.7901 96.9225 73.8661 91.9061 81.5822C86.8898 89.2982 79.7645 95.3052 71.4367 98.8505C63.1094 102.396 53.949 103.322 45.1119 101.516C36.2745 99.709 28.1504 95.2483 21.7697 88.6903C15.3884 82.1318 11.0379 73.7704 9.27492 64.6611C7.5119 55.5516 8.41712 46.1099 11.8743 37.5316C15.3314 28.9537 21.1828 21.6292 28.6817 16.4794Z" stroke="#0094FF" stroke-width="3.29401"/>
</g>
<g style="mix-blend-mode:hard-light" filter="url(#filter1_f)">
<path d="M54.0005 99.2788H54C53.4699 99.2788 52.8772 99.2386 52.391 99.2057C52.1901 99.1921 52.0075 99.1797 51.8549 99.1719L49.0494 99.0284L49.9162 96.3563L54.6311 81.8223L54.6329 81.8168C54.8604 81.1217 54.9299 80.3804 54.835 79.6513C54.7401 78.9223 54.4838 78.2289 54.0895 77.6245L54.0865 77.6199L49.2535 70.169L49.2519 70.1666C48.8274 69.5102 48.2556 68.9783 47.5919 68.6131C46.9286 68.2481 46.1918 68.0593 45.4464 68.06L45.4444 68.06H32.1806H31.0105L30.3737 67.0783L25.5407 59.6274L24.9822 58.7664L25.2991 57.7903L27.3849 51.3661L27.8682 49.8775H29.4334H37.125H39.2788V52.0312V56.815H41.7212V49.1903V48.8097L41.8517 48.4522L51.0357 23.279L48.7372 22.3931L47.778 25.02L47.2613 26.435H45.7549H35.5557H34.3858L33.7489 25.4537L31.0253 21.2565L29.847 19.4407L31.6686 18.2715C36.5364 15.1471 41.9792 13.0801 47.6608 12.2009C53.3425 11.3217 59.1392 11.6496 64.6917 13.1638L66.2788 13.5966V15.2417L66.2788 27.7479L66.2788 27.75M54.0005 99.2788L70.875 34.6875C69.0854 34.6857 67.3695 33.9542 66.104 32.6535C64.8385 31.3529 64.1268 29.5894 64.125 27.75H66.2788M54.0005 99.2788C59.7539 99.2774 65.4457 98.0775 70.7317 95.7533C76.0176 93.4291 80.7861 90.0298 84.7511 85.7638L85.6703 84.7749L85.1807 83.5166L80.26 70.8695L80.0217 70.257L79.4819 69.8819L72.1751 64.8037L72.0977 64.7499L72.016 64.7031C71.1902 64.2303 70.518 63.4984 70.1029 62.6003C69.6875 61.7017 69.5537 60.6879 69.7237 59.7027L69.725 59.6949L71.7399 47.759L71.7421 47.7456C71.9253 46.6174 72.4909 45.6047 73.3231 44.8827C74.1538 44.1618 75.1968 43.7754 76.2648 43.7788H76.2717H92.1375H95.1593L94.1735 40.9224C92.6261 36.4387 90.3755 32.2427 87.5091 28.5007L85.2141 25.5047L83.802 29.0045L83.0086 30.9707M54.0005 99.2788L54.1956 97.1245M66.2788 27.75C66.2806 29.0369 66.7793 30.2591 67.6477 31.1516C68.5146 32.0426 69.6773 32.5325 70.8772 32.5337M66.2788 27.75L70.8772 32.5337M70.8772 32.5337H79.6028H79.6088C80.2022 32.5354 80.7915 32.4161 81.3431 32.1811C81.8948 31.9461 82.3997 31.5993 82.8268 31.1576L82.8314 31.1529L83.0086 30.9707M70.8772 32.5337L79.6028 34.6875C80.4895 34.69 81.3679 34.5116 82.1871 34.1627C83.0063 33.8137 83.7499 33.3012 84.375 32.6548L84.8475 32.1692M83.0086 30.9707L82.9059 31.2254L82.9033 31.2316L82.8502 31.3633L83.1749 31.4943L83.1875 31.4994L84.8475 32.1692M83.0086 30.9707L83.3039 30.6672L84.8475 32.1692M84.8475 32.1692L84.8541 32.1529C84.6049 31.8045 84.35 31.4602 84.0895 31.1202L85.7993 29.8104L87.7966 30.6164L87.2864 31.8807C88.8868 34.2592 90.2414 36.8032 91.328 39.4712H92.1375V41.625L90.1016 42.3276C90.0204 42.0925 89.9372 41.8583 89.8518 41.625H76.2717C74.676 41.6199 73.1306 42.198 71.9115 43.256C70.6923 44.3139 69.8787 45.7829 69.6162 47.4005M54.1956 97.1245C59.5827 97.0964 64.9106 95.96 69.8648 93.7817C74.879 91.577 79.4063 88.3507 83.1735 84.2976L78.2528 71.6505L70.9459 66.5722C69.7254 65.8735 68.7473 64.801 68.1478 63.504C67.5484 62.2071 67.3573 60.7502 67.6013 59.3364L69.6162 47.4005M54.1956 97.1245L54.0136 97.6855L54.0002 97.6812L54 97.6811L51.9649 97.0209L52.0749 94.87C52.2881 94.8809 52.4774 94.8928 52.6515 94.9045L56.6798 82.4869C57.0075 81.4856 57.1071 80.4203 56.9707 79.3732C56.8344 78.3261 56.4658 77.3252 55.8934 76.4478L54.1956 97.1245ZM69.6162 47.4005L69.6162 47.4005L69.6162 47.4005ZM71.7971 15.765L68.7213 14.3079V17.7114V27.75V29.9038H70.875H79.3227H80.7756L81.3197 28.5565L82.7136 25.1051L83.2764 23.7117L82.1627 22.7026C79.0552 19.8868 75.5636 17.5494 71.7971 15.765ZM44.6713 98.1945L46.5916 98.633L47.1995 96.7594L52.3261 80.9557L52.6427 79.9796L52.0841 79.1187L47.2511 71.6713L46.6143 70.69H45.4444H29.7398L22.2708 59.1708L26.136 47.2475H38.1612H39.668L40.1845 45.832L45.247 31.957L46.3022 29.065H43.2237H33.1147L29.1986 23.0261L27.8306 20.9166L25.9561 22.5923C20.0131 27.9051 15.628 34.8028 13.2813 42.5135C10.9347 50.224 10.7165 58.4509 12.6505 66.2805C14.5846 74.1103 18.5967 81.2419 24.2478 86.8784C29.8993 92.5153 36.9686 96.4355 44.6713 98.1945ZM72.1264 60.1674L71.8846 61.5979L73.1195 62.3594L73.407 62.5367L81.9819 68.4932L85.9959 78.8105L87.5348 82.7657L89.8185 79.1885C95.658 70.0416 97.8701 58.955 96.0115 48.1959L95.7028 46.4087H93.8892H76.2717H74.4513L74.148 48.2036L72.1264 60.1674ZM28.9686 16.8972C36.3829 11.8055 45.0933 9.09154 53.9987 9.09128C65.9357 9.10561 77.3921 13.9851 85.8514 22.6793C94.3128 31.3758 99.0826 43.179 99.0963 55.5024C99.0958 64.6933 96.4436 73.673 91.4812 81.3059C86.5189 88.9389 79.4719 94.879 71.2382 98.3842C63.0052 101.889 53.9494 102.805 45.2134 101.019C36.477 99.2332 28.4437 94.8231 22.1329 88.3369C15.8214 81.8502 11.5169 73.5785 9.77246 64.5648C8.02794 55.551 8.92378 46.2084 12.3444 37.721C15.7647 29.2341 21.5531 21.9897 28.9686 16.8972Z" stroke="#0094FF" stroke-width="4.30755"/>
</g>
<g style="mix-blend-mode:hard-light" filter="url(#filter2_ddi)">
<path d="M54.0004 98.772H54C53.4878 98.772 52.9305 98.7342 52.4506 98.7016C52.2429 98.6875 52.0496 98.6744 51.8808 98.6658L49.7354 98.5561L50.3983 96.5127L55.1131 81.9787L55.1145 81.9745C55.3656 81.2074 55.4422 80.3898 55.3375 79.5859C55.2329 78.782 54.9502 78.0163 54.514 77.3476L54.5116 77.3441L49.6786 69.8932L49.6775 69.8914C49.208 69.1656 48.5743 68.5753 47.8362 68.1691C47.0985 67.7631 46.2774 67.5525 45.4459 67.5533L45.4444 67.5533H32.1806H31.2858L30.7989 66.8025L25.9659 59.3517L25.5388 58.6932L25.7811 57.9468L27.8669 51.5226L28.2365 50.3842H29.4334H37.125H38.772V52.0312V57.3217H42.228V49.1903V48.8993L42.3278 48.6259L51.6824 22.9851L48.4381 21.7347L47.302 24.8462L46.9069 25.9283H45.7549H35.5557H34.661L34.174 25.1778L31.4504 20.9806L30.5494 19.5921L31.9424 18.698C36.7511 15.6115 42.1271 13.57 47.7383 12.7017C53.3496 11.8334 59.0745 12.1572 64.5584 13.6527L65.772 13.9837V15.2417L65.772 27.7484L65.772 27.75M54.0004 98.772L70.875 34.6875C69.0854 34.6857 67.3695 33.9542 66.104 32.6535C64.8385 31.3529 64.1268 29.5894 64.125 27.75H65.772M54.0004 98.772C59.6833 98.7707 65.3057 97.5855 70.5278 95.2894C75.7497 92.9933 80.4614 89.6347 84.3799 85.4188L85.0828 84.6626L84.7085 83.7004L79.7877 71.0533L79.6055 70.5849L79.1927 70.298L71.8858 65.2198L71.8267 65.1787L71.7642 65.1429C70.8455 64.6169 70.1014 63.8049 69.6429 62.813C69.1842 61.8206 69.0369 60.7026 69.2243 59.6165L69.2253 59.6106L71.2402 47.6746L71.2419 47.6644C71.4437 46.421 72.0677 45.301 72.9909 44.4999C73.913 43.6997 75.0743 43.2682 76.2664 43.272H76.2717H92.1375H94.4483L93.6944 41.0877C92.1646 36.6551 89.9398 32.5074 87.1068 28.8089L85.3518 26.5178L84.2719 29.1941L83.4413 31.2527M54.0004 98.772L51.0604 68.9969L55.8934 76.4478C56.4658 77.3252 56.8344 78.3261 56.9707 79.3732C57.1071 80.4203 57.0075 81.4856 56.6798 82.4869L52.4901 95.4019C52.3519 95.3929 52.2059 95.3841 52.049 95.3761L51.9649 97.0209L53.5315 97.5292L53.6643 97.1199C53.7759 97.1231 53.8878 97.125 54 97.125C59.4538 97.1237 64.8507 95.9864 69.8648 93.7817C74.879 91.577 79.4063 88.3507 83.1735 84.2976L78.2528 71.6505L70.9459 66.5722C69.7254 65.8735 68.7473 64.801 68.1478 63.504C67.5484 62.2071 67.3573 60.7502 67.6013 59.3364L69.6162 47.4005C69.8787 45.7829 70.6923 44.3139 71.9115 43.256C73.1306 42.198 74.676 41.6199 76.2717 41.625H90.391C90.4554 41.8036 90.5186 41.9827 90.5806 42.1623L92.1375 41.625V39.978H91.5306C90.3369 36.935 88.7969 34.0483 86.9428 31.3779L87.3266 30.4267L85.7993 29.8104L84.4918 30.812C84.6905 31.0714 84.886 31.3332 85.0782 31.5974L84.8475 32.1692M65.772 27.75C65.7738 29.1669 66.3227 30.5164 67.2845 31.505C68.2452 32.4924 69.5381 33.0391 70.8767 33.0405M65.772 27.75L70.8767 33.0405M70.8767 33.0405H79.6028H79.6074C80.2698 33.0423 80.9271 32.9091 81.5417 32.6474C82.1563 32.3856 82.7174 31.9997 83.1911 31.5099L83.1946 31.5063L83.4413 31.2527M70.8767 33.0405L79.6028 34.6875C80.4895 34.69 81.3679 34.5116 82.1871 34.1627C83.0063 33.8137 83.7499 33.3012 84.375 32.6548L84.8475 32.1692M83.4413 31.2527L83.3202 31.5529L84.8475 32.1692M83.4413 31.2527L83.6671 31.0206L84.8475 32.1692M71.5802 16.223L69.228 15.1087V17.7114V27.75V29.397H70.875H79.3227H80.4337L80.8498 28.3668L82.2437 24.9153L82.674 23.8498L81.8224 23.0781C78.7515 20.2955 75.3014 17.9859 71.5802 16.223ZM44.7841 97.7004L46.2526 98.0358L46.7174 96.603L51.844 80.7994L52.0862 80.0529L51.659 79.3946L46.826 71.9472L46.339 71.1967H45.4444H29.4644L21.7143 59.2441L25.7675 46.7408H38.1612H39.3134L39.7084 45.6583L44.7709 31.7833L45.5778 29.5717H43.2237H32.8393L28.7734 23.3019L27.7273 21.6887L26.2938 22.9701C20.421 28.2202 16.0861 35.0379 13.7661 42.6611C11.4461 50.2841 11.2304 58.418 13.1425 66.159C15.0546 73.9001 19.021 80.9493 24.6057 86.5196C30.1907 92.0902 37.1754 95.9629 44.7841 97.7004ZM72.626 60.2518L72.4412 61.3457L73.3855 61.9281L73.6848 62.1127L82.398 68.1653L86.4682 78.6267L87.645 81.6513L89.3914 78.9158C95.1623 69.8763 97.3494 58.9178 95.5121 48.2821L95.276 46.9155H93.8892H76.2717H74.8796L74.6477 48.2881L72.626 60.2518ZM28.6817 16.4794C36.1798 11.3302 44.9902 8.58471 53.999 8.58451C66.0749 8.59891 77.6615 13.5353 86.2146 22.3259C94.7693 31.1183 99.5892 43.0486 99.603 55.5018C99.6027 64.7901 96.9225 73.8661 91.9061 81.5822C86.8898 89.2982 79.7645 95.3052 71.4367 98.8505C63.1094 102.396 53.949 103.322 45.1119 101.516C36.2745 99.709 28.1504 95.2483 21.7697 88.6903C15.3884 82.1318 11.0379 73.7704 9.27492 64.6611C7.5119 55.5516 8.41712 46.1099 11.8743 37.5316C15.3314 28.9537 21.1828 21.6292 28.6817 16.4794Z" stroke="#00B3FF" stroke-opacity="0.2" stroke-width="3.29401"/>
</g>
<g filter="url(#filter3_f)">
<path d="M71.309 16.7955L69.8615 16.1098V17.7114V27.75V28.7635H70.875H79.3227H80.0064L80.2625 28.1295L81.6563 24.6781L81.9212 24.0224L81.3971 23.5475C78.3719 20.8063 74.9736 18.5316 71.309 16.7955ZM44.9251 97.0829L45.8288 97.2893L46.1149 96.4075L51.2415 80.6039L51.3905 80.1445L51.1276 79.7394L46.2946 72.292L45.9949 71.8302H45.4444H29.1202L21.0187 59.3356L25.3069 46.1073H38.1612H38.8702L39.1133 45.4412L44.1758 31.5662L44.6724 30.2052H43.2237H32.4951L28.2419 23.6465L27.5981 22.6538L26.716 23.4424C20.9308 28.6141 16.6588 35.3317 14.3721 42.8455C12.0854 50.3592 11.8728 58.3769 13.7575 66.0071C15.6422 73.6373 19.5513 80.5836 25.053 86.0711C30.5549 91.5588 37.4338 95.3721 44.9251 97.0829ZM54 98.1385H54.0003C59.595 98.1372 65.1307 96.9704 70.2728 94.7095C75.4148 92.4486 80.0556 89.1409 83.9159 84.9876L84.3485 84.5222L84.1181 83.93L79.1973 71.283L79.0852 70.9947L78.8312 70.8182L71.5243 65.74L71.4879 65.7147L71.4495 65.6927C70.4147 65.1002 69.5806 64.188 69.0679 63.0788C68.555 61.9692 68.3909 60.7209 68.6001 59.5088L68.6007 59.5051L70.6156 47.5692L70.6166 47.5629C70.8418 46.1756 71.5387 44.9214 72.5757 44.0215C73.6121 43.1221 74.9211 42.6342 76.2684 42.6385H76.2717H92.1375H93.5595L93.0956 41.2943C91.5879 36.9256 89.3953 32.8382 86.6039 29.1941L85.5239 27.7842L84.8594 29.4312L83.9822 31.6052L83.6486 31.948L83.6464 31.9502C83.1145 32.5003 82.4832 32.9349 81.7899 33.2302C81.0967 33.5255 80.3543 33.676 79.6056 33.674H79.6028H70.8761C69.3639 33.6724 67.9084 33.0546 66.8305 31.9467C65.7516 30.8379 65.1401 29.3287 65.1386 27.749V15.2417V14.4675L64.3917 14.2639C58.9935 12.7917 53.3584 12.473 47.8352 13.3277C42.312 14.1824 37.0194 16.192 32.2846 19.2311L31.4273 19.7813L31.9818 20.6358L34.7054 24.833L35.0051 25.2948H35.5557H45.7549H46.4638L46.707 24.6289L48.0642 20.9117L52.4907 22.6178L42.9229 48.843L42.8615 49.0112V49.1903V57.9552H38.1386V52.0312V51.0177H37.125H29.4334H28.6968L28.4694 51.7183L26.3836 58.1424L26.2345 58.6017L26.4973 59.0069L31.3303 66.4578L31.63 66.9198H32.1806H45.4444H45.4453C46.3846 66.9189 47.3108 67.1569 48.1417 67.6141C48.9727 68.0715 49.6838 68.7348 50.2094 69.5474L50.2101 69.5485L55.0431 76.9993L55.0445 77.0015C55.5331 77.7505 55.8488 78.6067 55.9657 79.5041C56.0826 80.4016 55.9971 81.3144 55.7165 82.1716L55.7157 82.1741L51.0008 96.7082L50.5929 97.9656L51.9131 98.0332C52.1031 98.0429 52.3091 98.0569 52.5245 98.0715C52.9947 98.1035 53.5095 98.1385 54 98.1385ZM73.2507 60.3573L73.1369 61.0305L73.718 61.3889L74.0321 61.5826L82.9183 67.7554L87.0586 78.397L87.7828 80.2583L88.8575 78.5749C94.5427 69.6696 96.6985 58.8713 94.8879 48.39L94.7426 47.549H93.8892H76.2717H75.415L75.2723 48.3936L73.2507 60.3573ZM28.3231 15.9573C35.9259 10.7361 44.8612 7.95116 53.9995 7.95104C66.2488 7.96557 77.9983 12.973 86.6686 21.8841C95.34 30.7964 100.222 42.8857 100.236 55.5011C100.236 64.9111 97.5211 74.1076 92.4372 81.9274C87.3533 89.7473 80.1303 95.8379 71.6848 99.4333C63.2396 103.029 53.9485 103.969 44.985 102.136C36.0214 100.304 27.7838 95.7799 21.3157 89.1321C14.8472 82.4839 10.4391 74.0104 8.65299 64.7815C6.86685 55.5525 7.78379 45.9867 11.2868 37.2948C14.7897 28.6031 20.7198 21.1787 28.3231 15.9573Z" stroke="#82D9FF" stroke-width="2.02708"/>
</g>
<g filter="url(#filter4_f)">
<path d="M71.092 17.2535L70.3683 16.9106V17.7114V27.75V28.2568H70.875H79.3227H79.6645L79.7925 27.9398L81.1864 24.4884L81.3188 24.1605L81.0568 23.9231C78.0682 21.215 74.7114 18.9681 71.092 17.2535ZM45.038 96.5888L45.4898 96.692L45.6328 96.2512L50.7594 80.4475L50.834 80.2178L50.7025 80.0153L45.8695 72.5679L45.7197 72.337H45.4444H28.8448L20.4623 59.4089L24.9385 45.6005H38.1612H38.5157L38.6372 45.2675L43.6997 31.3925L43.948 30.712H43.2237H32.2198L27.8167 23.9223L27.4948 23.4259L27.0538 23.8202C21.3387 28.9292 17.117 35.5668 14.8569 42.9931C12.5969 50.4192 12.3866 58.344 14.2495 65.8855C16.1123 73.4271 19.9756 80.291 25.4109 85.7123C30.8463 91.1337 37.6406 94.8996 45.038 96.5888ZM51.4829 96.8646L51.2789 97.4933L51.939 97.527C52.1467 97.5377 52.3626 97.5524 52.5833 97.5674C53.0443 97.5989 53.5265 97.6318 54 97.6318C59.5244 97.6305 64.9907 96.4784 70.0688 94.2456C75.1469 92.0128 79.731 88.7458 83.5447 84.6426L83.761 84.4099L83.6458 84.1138L78.7251 71.4667L78.669 71.3226L78.542 71.2344L71.2351 66.1561L71.2169 66.1435L71.1977 66.1325C70.0701 65.4869 69.164 64.4945 68.6079 63.2914C68.0517 62.0881 67.8741 60.7356 68.1007 59.4226L68.101 59.4208L70.1159 47.4848L70.1164 47.4817C70.3603 45.9792 71.1155 44.6176 72.2436 43.6387C73.3714 42.6601 74.7986 42.1271 76.27 42.1318H76.2717H92.1375H92.8485L92.6166 41.4597C91.1264 37.1419 88.9597 33.1029 86.2016 29.5023L85.6616 28.7973L85.3293 29.6208L84.4148 31.8872L84.0118 32.3014L84.0107 32.3025C83.4322 32.9008 82.7447 33.3743 81.9885 33.6964C81.2323 34.0185 80.4219 34.183 79.6042 34.1807H79.6028H70.8755C69.2247 34.179 67.639 33.5044 66.4672 32.3001C65.2951 31.0954 64.6335 29.4591 64.6318 27.7495V15.2417V14.8546L64.2584 14.7528C58.9288 13.2993 53.3655 12.9847 47.9127 13.8285C42.4599 14.6723 37.2341 16.6564 32.5583 19.6576L32.1297 19.9327L32.4069 20.3599L35.1305 24.5571L35.2804 24.788H35.5557H45.7549H46.1094L46.2309 24.4551L47.7651 20.2534L53.1374 22.3239L43.3989 49.0167L43.3683 49.1008V49.1903V58.462H37.6318V52.0312V51.5245H37.125H29.4334H29.0651L28.9514 51.8748L26.8656 58.2989L26.7911 58.5286L26.9225 58.7312L31.7555 66.182L31.9053 66.413H32.1806H45.4444H45.4449C46.4702 66.4121 47.4806 66.6719 48.386 67.1702C49.2915 67.6685 50.0644 68.3902 50.6349 69.2721L50.6352 69.2727L55.4682 76.7236L55.469 76.7247C55.9995 77.5379 56.3416 78.4664 56.4682 79.4387C56.5948 80.4109 56.5023 81.4 56.1982 82.3292L56.1977 82.3305L51.4829 96.8646ZM73.7503 60.4418L73.6935 60.7784L73.984 60.9576L74.3098 61.1584L83.3345 67.4274L87.5309 78.2133L87.893 79.1439L88.4303 78.3022C94.0471 69.5042 96.1778 58.8341 94.3885 48.4762L94.3159 48.0557H93.8892H76.2717H75.8433L75.772 48.4781L73.7503 60.4418ZM28.0362 15.5395C35.7227 10.2609 44.758 7.44433 53.9997 7.44427C66.388 7.45888 78.2677 12.5231 87.0318 21.5308C95.7965 30.5389 100.729 42.7553 100.743 55.5006C100.743 65.0079 98 74.3007 92.8621 82.2037C87.7242 90.1066 80.423 96.2641 71.8833 99.8996C63.3438 103.535 53.948 104.486 44.8835 102.633C35.8189 100.78 27.4905 96.2052 20.9524 89.4855C14.4142 82.7656 9.96009 74.2023 8.15546 64.8778C6.35081 55.5532 7.27713 45.8881 10.8167 37.1054C14.3563 28.3227 20.3495 20.8183 28.0362 15.5395Z" stroke="white" stroke-width="1.01354"/>
</g>
</g>
<defs>
<filter id="filter0_f" x="-16.0547" y="-15.8672" width="140.109" height="142.734" filterUnits="userSpaceOnUse" color-interpolation-filters="sRGB">
<feFlood flood-opacity="0" result="BackgroundImageFix"/>
<feBlend mode="normal" in="SourceGraphic" in2="BackgroundImageFix" result="shape"/>
<feGaussianBlur stdDeviation="11.4023" result="effect1_foregroundBlur"/>
</filter>
<filter id="filter1_f" x="-0.851564" y="-0.664064" width="109.703" height="112.328" filterUnits="userSpaceOnUse" color-interpolation-filters="sRGB">
<feFlood flood-opacity="0" result="BackgroundImageFix"/>
<feBlend mode="normal" in="SourceGraphic" in2="BackgroundImageFix" result="shape"/>
<feGaussianBlur stdDeviation="3.80078" result="effect1_foregroundBlur"/>
</filter>
<filter id="filter2_ddi" x="-3.13203" y="4.65703" width="114.264" height="116.889" filterUnits="userSpaceOnUse" color-interpolation-filters="sRGB">
<feFlood flood-opacity="0" result="BackgroundImageFix"/>
<feColorMatrix in="SourceAlpha" type="matrix" values="0 0 0 0 0 0 0 0 0 0 0 0 0 0 0 0 0 0 127 0" result="hardAlpha"/>
<feOffset dy="3.29401"/>
<feGaussianBlur stdDeviation="1.26693"/>
<feColorMatrix type="matrix" values="0 0 0 0 0 0 0 0 0 0.051 0 0 0 0 0.082 0 0 0 0.7 0"/>
<feBlend mode="multiply" in2="BackgroundImageFix" result="effect1_dropShadow"/>
<feColorMatrix in="SourceAlpha" type="matrix" values="0 0 0 0 0 0 0 0 0 0 0 0 0 0 0 0 0 0 127 0" result="hardAlpha"/>
<feOffset dy="7.60156"/>
<feGaussianBlur stdDeviation="4.94102"/>
<feColorMatrix type="matrix" values="0 0 0 0 0 0 0 0 0 0.4 0 0 0 0 1 0 0 0 1 0"/>
<feBlend mode="color-dodge" in2="effect1_dropShadow" result="effect2_dropShadow"/>
<feBlend mode="normal" in="SourceGraphic" in2="effect2_dropShadow" result="shape"/>
<feColorMatrix in="SourceAlpha" type="matrix" values="0 0 0 0 0 0 0 0 0 0 0 0 0 0 0 0 0 0 127 0" result="hardAlpha"/>
<feOffset dx="-0.329401" dy="0.658802"/>
<feGaussianBlur stdDeviation="0.164701"/>
<feComposite in2="hardAlpha" operator="arithmetic" k2="-1" k3="1"/>
<feColorMatrix type="matrix" values="0 0 0 0 1 0 0 0 0 1 0 0 0 0 1 0 0 0 0.5 0"/>
<feBlend mode="normal" in2="shape" result="effect3_innerShadow"/>
</filter>
<filter id="filter3_f" x="6.24323" y="6.43073" width="95.5136" height="98.1386" filterUnits="userSpaceOnUse" color-interpolation-filters="sRGB">
<feFlood flood-opacity="0" result="BackgroundImageFix"/>
<feBlend mode="normal" in="SourceGraphic" in2="BackgroundImageFix" result="shape"/>
<feGaussianBlur stdDeviation="0.253385" result="effect1_foregroundBlur"/>
</filter>
<filter id="filter4_f" x="6.41215" y="6.59965" width="95.1757" height="97.8007" filterUnits="userSpaceOnUse" color-interpolation-filters="sRGB">
<feFlood flood-opacity="0" result="BackgroundImageFix"/>
<feBlend mode="normal" in="SourceGraphic" in2="BackgroundImageFix" result="shape"/>
<feGaussianBlur stdDeviation="0.168924" result="effect1_foregroundBlur"/>
</filter>
<clipPath id="clip0">
<rect width="108" height="111" fill="white"/>
</clipPath>
</defs>
</svg>
