<svg width="130" height="134" viewBox="0 0 130 134" fill="none" xmlns="http://www.w3.org/2000/svg">
<g style="mix-blend-mode:hard-light" filter="url(#filter0_f)">
<path d="M64.9997 118.68C37.1757 118.68 14.6797 95.5758 14.6797 66.9998C14.6797 38.4238 37.1757 15.3198 64.9997 15.3198C92.8237 15.3198 115.32 38.4238 115.32 66.9998C115.32 95.5758 92.8237 118.68 64.9997 118.68ZM64.9997 21.3998C40.4317 21.3998 20.5997 41.7678 20.5997 66.9998C20.5997 92.2318 40.4317 112.6 64.9997 112.6C89.5677 112.6 109.4 92.2318 109.4 66.9998C109.4 41.7678 89.5677 21.3998 64.9997 21.3998Z" stroke="#0094FF" stroke-width="1.95"/>
</g>
<g style="mix-blend-mode:hard-light" filter="url(#filter1_f)">
<path d="M64.9997 118.68C37.1757 118.68 14.6797 95.5758 14.6797 66.9998C14.6797 38.4238 37.1757 15.3198 64.9997 15.3198C92.8237 15.3198 115.32 38.4238 115.32 66.9998C115.32 95.5758 92.8237 118.68 64.9997 118.68ZM64.9997 21.3998C40.4317 21.3998 20.5997 41.7678 20.5997 66.9998C20.5997 92.2318 40.4317 112.6 64.9997 112.6C89.5677 112.6 109.4 92.2318 109.4 66.9998C109.4 41.7678 89.5677 21.3998 64.9997 21.3998Z" stroke="#0094FF" stroke-width="2.55"/>
</g>
<g style="mix-blend-mode:hard-light" filter="url(#filter2_ddi)">
<path d="M64.9997 118.68C37.1757 118.68 14.6797 95.5758 14.6797 66.9998C14.6797 38.4238 37.1757 15.3198 64.9997 15.3198C92.8237 15.3198 115.32 38.4238 115.32 66.9998C115.32 95.5758 92.8237 118.68 64.9997 118.68ZM64.9997 21.3998C40.4317 21.3998 20.5997 41.7678 20.5997 66.9998C20.5997 92.2318 40.4317 112.6 64.9997 112.6C89.5677 112.6 109.4 92.2318 109.4 66.9998C109.4 41.7678 89.5677 21.3998 64.9997 21.3998Z" stroke="#00B3FF" stroke-opacity="0.2" stroke-width="1.95"/>
</g>
<g filter="url(#filter3_f)">
<path d="M64.9997 118.68C37.1757 118.68 14.6797 95.5758 14.6797 66.9998C14.6797 38.4238 37.1757 15.3198 64.9997 15.3198C92.8237 15.3198 115.32 38.4238 115.32 66.9998C115.32 95.5758 92.8237 118.68 64.9997 118.68ZM64.9997 21.3998C40.4317 21.3998 20.5997 41.7678 20.5997 66.9998C20.5997 92.2318 40.4317 112.6 64.9997 112.6C89.5677 112.6 109.4 92.2318 109.4 66.9998C109.4 41.7678 89.5677 21.3998 64.9997 21.3998Z" stroke="#82D9FF" stroke-width="1.2"/>
</g>
<g filter="url(#filter4_f)">
<path d="M64.9997 118.68C37.1757 118.68 14.6797 95.5758 14.6797 66.9998C14.6797 38.4238 37.1757 15.3198 64.9997 15.3198C92.8237 15.3198 115.32 38.4238 115.32 66.9998C115.32 95.5758 92.8237 118.68 64.9997 118.68ZM64.9997 21.3998C40.4317 21.3998 20.5997 41.7678 20.5997 66.9998C20.5997 92.2318 40.4317 112.6 64.9997 112.6C89.5677 112.6 109.4 92.2318 109.4 66.9998C109.4 41.7678 89.5677 21.3998 64.9997 21.3998Z" stroke="white" stroke-width="0.6"/>
</g>
<g style="mix-blend-mode:hard-light" filter="url(#filter5_f)">
<path d="M80.688 93.9789L62.04 74.8269V40.1709H67.96V72.3949L84.8321 89.7229L80.688 93.9789Z" stroke="#0094FF" stroke-width="1.95" stroke-linejoin="round"/>
</g>
<g style="mix-blend-mode:hard-light" filter="url(#filter6_f)">
<path d="M80.688 93.9789L62.04 74.8269V40.1709H67.96V72.3949L84.8321 89.7229L80.688 93.9789Z" stroke="#0094FF" stroke-width="2.55" stroke-linejoin="round"/>
</g>
<g style="mix-blend-mode:hard-light" filter="url(#filter7_ddi)">
<path d="M80.688 93.9789L62.04 74.8269V40.1709H67.96V72.3949L84.8321 89.7229L80.688 93.9789Z" stroke="#00B3FF" stroke-opacity="0.2" stroke-width="1.95" stroke-linejoin="round"/>
</g>
<g filter="url(#filter8_f)">
<path d="M80.688 93.9789L62.04 74.8269V40.1709H67.96V72.3949L84.8321 89.7229L80.688 93.9789Z" stroke="#82D9FF" stroke-width="1.2" stroke-linejoin="round"/>
</g>
<g filter="url(#filter9_f)">
<path d="M80.688 93.9789L62.04 74.8269V40.1709H67.96V72.3949L84.8321 89.7229L80.688 93.9789Z" stroke="white" stroke-width="0.6" stroke-linejoin="round"/>
</g>
<defs>
<filter id="filter0_f" x="0.205078" y="0.844727" width="129.59" height="132.31" filterUnits="userSpaceOnUse" color-interpolation-filters="sRGB">
<feFlood flood-opacity="0" result="BackgroundImageFix"/>
<feBlend mode="normal" in="SourceGraphic" in2="BackgroundImageFix" result="shape"/>
<feGaussianBlur stdDeviation="6.75" result="effect1_foregroundBlur"/>
</filter>
<filter id="filter1_f" x="8.9043" y="9.54492" width="112.19" height="114.91" filterUnits="userSpaceOnUse" color-interpolation-filters="sRGB">
<feFlood flood-opacity="0" result="BackgroundImageFix"/>
<feBlend mode="normal" in="SourceGraphic" in2="BackgroundImageFix" result="shape"/>
<feGaussianBlur stdDeviation="2.25" result="effect1_foregroundBlur"/>
</filter>
<filter id="filter2_ddi" x="7.85508" y="12.9947" width="114.29" height="117.01" filterUnits="userSpaceOnUse" color-interpolation-filters="sRGB">
<feFlood flood-opacity="0" result="BackgroundImageFix"/>
<feColorMatrix in="SourceAlpha" type="matrix" values="0 0 0 0 0 0 0 0 0 0 0 0 0 0 0 0 0 0 127 0" result="hardAlpha"/>
<feOffset dy="1.95"/>
<feGaussianBlur stdDeviation="0.75"/>
<feColorMatrix type="matrix" values="0 0 0 0 0 0 0 0 0 0.051 0 0 0 0 0.082 0 0 0 0.7 0"/>
<feBlend mode="multiply" in2="BackgroundImageFix" result="effect1_dropShadow"/>
<feColorMatrix in="SourceAlpha" type="matrix" values="0 0 0 0 0 0 0 0 0 0 0 0 0 0 0 0 0 0 127 0" result="hardAlpha"/>
<feOffset dy="4.5"/>
<feGaussianBlur stdDeviation="2.925"/>
<feColorMatrix type="matrix" values="0 0 0 0 0 0 0 0 0 0.4 0 0 0 0 1 0 0 0 1 0"/>
<feBlend mode="color-dodge" in2="effect1_dropShadow" result="effect2_dropShadow"/>
<feBlend mode="normal" in="SourceGraphic" in2="effect2_dropShadow" result="shape"/>
<feColorMatrix in="SourceAlpha" type="matrix" values="0 0 0 0 0 0 0 0 0 0 0 0 0 0 0 0 0 0 127 0" result="hardAlpha"/>
<feOffset dx="-0.195" dy="0.39"/>
<feGaussianBlur stdDeviation="0.0975"/>
<feComposite in2="hardAlpha" operator="arithmetic" k2="-1" k3="1"/>
<feColorMatrix type="matrix" values="0 0 0 0 1 0 0 0 0 1 0 0 0 0 1 0 0 0 0.5 0"/>
<feBlend mode="normal" in2="shape" result="effect3_innerShadow"/>
</filter>
<filter id="filter3_f" x="13.7801" y="14.4197" width="102.44" height="105.16" filterUnits="userSpaceOnUse" color-interpolation-filters="sRGB">
<feFlood flood-opacity="0" result="BackgroundImageFix"/>
<feBlend mode="normal" in="SourceGraphic" in2="BackgroundImageFix" result="shape"/>
<feGaussianBlur stdDeviation="0.15" result="effect1_foregroundBlur"/>
</filter>
<filter id="filter4_f" x="14.1799" y="14.82" width="101.64" height="104.36" filterUnits="userSpaceOnUse" color-interpolation-filters="sRGB">
<feFlood flood-opacity="0" result="BackgroundImageFix"/>
<feBlend mode="normal" in="SourceGraphic" in2="BackgroundImageFix" result="shape"/>
<feGaussianBlur stdDeviation="0.1" result="effect1_foregroundBlur"/>
</filter>
<filter id="filter5_f" x="47.5654" y="25.6958" width="51.742" height="82.758" filterUnits="userSpaceOnUse" color-interpolation-filters="sRGB">
<feFlood flood-opacity="0" result="BackgroundImageFix"/>
<feBlend mode="normal" in="SourceGraphic" in2="BackgroundImageFix" result="shape"/>
<feGaussianBlur stdDeviation="6.75" result="effect1_foregroundBlur"/>
</filter>
<filter id="filter6_f" x="56.2646" y="34.396" width="34.342" height="65.358" filterUnits="userSpaceOnUse" color-interpolation-filters="sRGB">
<feFlood flood-opacity="0" result="BackgroundImageFix"/>
<feBlend mode="normal" in="SourceGraphic" in2="BackgroundImageFix" result="shape"/>
<feGaussianBlur stdDeviation="2.25" result="effect1_foregroundBlur"/>
</filter>
<filter id="filter7_ddi" x="55.2154" y="37.8458" width="36.442" height="67.458" filterUnits="userSpaceOnUse" color-interpolation-filters="sRGB">
<feFlood flood-opacity="0" result="BackgroundImageFix"/>
<feColorMatrix in="SourceAlpha" type="matrix" values="0 0 0 0 0 0 0 0 0 0 0 0 0 0 0 0 0 0 127 0" result="hardAlpha"/>
<feOffset dy="1.95"/>
<feGaussianBlur stdDeviation="0.75"/>
<feColorMatrix type="matrix" values="0 0 0 0 0 0 0 0 0 0.051 0 0 0 0 0.082 0 0 0 0.7 0"/>
<feBlend mode="multiply" in2="BackgroundImageFix" result="effect1_dropShadow"/>
<feColorMatrix in="SourceAlpha" type="matrix" values="0 0 0 0 0 0 0 0 0 0 0 0 0 0 0 0 0 0 127 0" result="hardAlpha"/>
<feOffset dy="4.5"/>
<feGaussianBlur stdDeviation="2.925"/>
<feColorMatrix type="matrix" values="0 0 0 0 0 0 0 0 0 0.4 0 0 0 0 1 0 0 0 1 0"/>
<feBlend mode="color-dodge" in2="effect1_dropShadow" result="effect2_dropShadow"/>
<feBlend mode="normal" in="SourceGraphic" in2="effect2_dropShadow" result="shape"/>
<feColorMatrix in="SourceAlpha" type="matrix" values="0 0 0 0 0 0 0 0 0 0 0 0 0 0 0 0 0 0 127 0" result="hardAlpha"/>
<feOffset dx="-0.195" dy="0.39"/>
<feGaussianBlur stdDeviation="0.0975"/>
<feComposite in2="hardAlpha" operator="arithmetic" k2="-1" k3="1"/>
<feColorMatrix type="matrix" values="0 0 0 0 1 0 0 0 0 1 0 0 0 0 1 0 0 0 0.5 0"/>
<feBlend mode="normal" in2="shape" result="effect3_innerShadow"/>
</filter>
<filter id="filter8_f" x="61.1404" y="39.2708" width="24.592" height="55.608" filterUnits="userSpaceOnUse" color-interpolation-filters="sRGB">
<feFlood flood-opacity="0" result="BackgroundImageFix"/>
<feBlend mode="normal" in="SourceGraphic" in2="BackgroundImageFix" result="shape"/>
<feGaussianBlur stdDeviation="0.15" result="effect1_foregroundBlur"/>
</filter>
<filter id="filter9_f" x="61.5402" y="39.6711" width="23.792" height="54.808" filterUnits="userSpaceOnUse" color-interpolation-filters="sRGB">
<feFlood flood-opacity="0" result="BackgroundImageFix"/>
<feBlend mode="normal" in="SourceGraphic" in2="BackgroundImageFix" result="shape"/>
<feGaussianBlur stdDeviation="0.1" result="effect1_foregroundBlur"/>
</filter>
</defs>
</svg>
