<svg width="41" height="40" viewBox="0 0 41 40" fill="none" xmlns="http://www.w3.org/2000/svg">
<circle cx="20.4731" cy="20" r="20" fill="#4EB1F6"/>
<g clip-path="url(#clip0)">
<path d="M20.4732 6.11768C16.7018 6.11768 16.231 6.13503 14.7502 6.20097C13.2717 6.27038 12.2652 6.50291 11.3802 6.8465C10.4675 7.2005 9.69237 7.67597 8.92074 8.4476C8.14911 9.21922 7.67249 9.99317 7.31964 10.9071C6.97606 11.7921 6.74237 12.7986 6.67411 14.277C6.6047 15.7578 6.59082 16.2287 6.59082 20C6.59082 23.7714 6.60817 24.2422 6.67411 25.723C6.74353 27.2003 6.97606 28.208 7.31964 29.093C7.6682 30.0195 8.21459 30.8588 8.92074 31.5525C9.61402 32.2591 10.4535 32.8056 11.3802 33.1536C12.2664 33.496 13.2729 33.7308 14.7502 33.7991C16.231 33.8685 16.7018 33.8824 20.4732 33.8824C24.2445 33.8824 24.7154 33.865 26.1962 33.7991C27.6735 33.7297 28.6811 33.496 29.5661 33.1536C30.4924 32.8046 31.3316 32.2582 32.0256 31.5525C32.7325 30.8594 33.279 30.0199 33.6267 29.093C33.9691 28.208 34.204 27.2003 34.2722 25.723C34.3416 24.2422 34.3555 23.7714 34.3555 20C34.3555 16.2287 34.3382 15.7578 34.2722 14.277C34.2028 12.7997 33.9691 11.7909 33.6267 10.9071C33.278 9.98069 32.7316 9.1414 32.0256 8.4476C31.3328 7.74034 30.4932 7.19378 29.5661 6.8465C28.6811 6.50291 27.6735 6.26922 26.1962 6.20097C24.7154 6.13156 24.2445 6.11768 20.4732 6.11768ZM20.4732 8.6165C24.1786 8.6165 24.6205 8.63501 26.084 8.69864C27.4375 8.76226 28.1721 8.9867 28.6603 9.17873C29.3104 9.42977 29.7709 9.73056 30.2591 10.2153C30.7438 10.7012 31.0446 11.1628 31.2956 11.8129C31.4854 12.3011 31.7121 13.0357 31.7734 14.3892C31.8394 15.8538 31.8544 16.2934 31.8544 20C31.8544 23.7066 31.837 24.1474 31.7688 25.6108C31.6982 26.9643 31.4726 27.699 31.2817 28.1871C31.0559 28.7896 30.7009 29.3353 30.2417 29.7859C29.793 30.2456 29.2477 30.5996 28.6453 30.8225C28.1594 31.0122 27.4132 31.239 26.0597 31.3003C24.5858 31.3662 24.152 31.3812 20.4385 31.3812C16.7238 31.3812 16.29 31.3639 14.8173 31.2956C13.4626 31.2251 12.7164 30.9995 12.2305 30.8086C11.6277 30.5856 11.0825 30.2302 10.6352 29.7686C10.1708 29.3229 9.81467 28.7768 9.59404 28.1721C9.40315 27.6862 9.17872 26.9401 9.10815 25.5865C9.0561 24.1289 9.03759 23.6789 9.03759 19.9827C9.03759 16.2853 9.0561 15.8342 9.10815 14.3592C9.17872 13.0056 9.40315 12.2606 9.59404 11.7747C9.83698 11.1153 10.1482 10.6641 10.6352 10.1771C11.1199 9.69238 11.5723 9.38003 12.2305 9.13824C12.7164 8.94621 13.4464 8.72062 14.7999 8.65121C16.2749 8.59915 16.7087 8.58179 20.4211 8.58179L20.4732 8.6165ZM20.4732 12.8714C19.537 12.8714 18.6101 13.0558 17.7452 13.4141C16.8803 13.7723 16.0945 14.2974 15.4325 14.9594C14.7705 15.6213 14.2455 16.4072 13.8872 17.272C13.529 18.1369 13.3446 19.0639 13.3446 20C13.3446 20.9362 13.529 21.8631 13.8872 22.728C14.2455 23.5929 14.7705 24.3788 15.4325 25.0407C16.0945 25.7027 16.8803 26.2277 17.7452 26.586C18.6101 26.9442 19.537 27.1286 20.4732 27.1286C22.3638 27.1286 24.177 26.3776 25.5138 25.0407C26.8507 23.7038 27.6018 21.8906 27.6018 20C27.6018 18.1094 26.8507 16.2962 25.5138 14.9594C24.177 13.6225 22.3638 12.8714 20.4732 12.8714ZM20.4732 24.6275C17.9165 24.6275 15.8457 22.5567 15.8457 20C15.8457 17.4434 17.9165 15.3726 20.4732 15.3726C23.0298 15.3726 25.1006 17.4434 25.1006 20C25.1006 22.5567 23.0298 24.6275 20.4732 24.6275ZM29.5499 12.5903C29.5339 13.0214 29.3513 13.4295 29.0407 13.7288C28.73 14.0281 28.3154 14.1953 27.884 14.1953C27.4527 14.1953 27.0381 14.0281 26.7274 13.7288C26.4168 13.4295 26.2342 13.0214 26.2182 12.5903C26.2182 12.1485 26.3937 11.7248 26.7061 11.4124C27.0185 11.1 27.4422 10.9244 27.884 10.9244C28.3259 10.9244 28.7496 11.1 29.062 11.4124C29.3744 11.7248 29.5499 12.1485 29.5499 12.5903Z" fill="white"/>
</g>
<defs>
<clipPath id="clip0">
<rect width="27.7647" height="27.7647" fill="white" transform="translate(6.59082 6.11768)"/>
</clipPath>
</defs>
</svg>
