<svg width="68" height="69" viewBox="0 0 68 69" fill="none" xmlns="http://www.w3.org/2000/svg">
<ellipse cx="34" cy="32.7282" rx="34" ry="32.2712" fill="#95D0FA"/>
<g clip-path="url(#clip0)">
<path d="M46.7502 25.957C46.7502 29.3385 45.4069 32.5816 43.0159 34.9726C40.6248 37.3637 37.3818 38.707 34.0002 38.707C30.6187 38.707 27.3757 37.3637 24.9846 34.9726C22.5935 32.5816 21.2502 29.3385 21.2502 25.957C21.2502 22.5755 22.5935 19.3325 24.9846 16.9414C27.3757 14.5503 30.6187 13.207 34.0002 13.207C37.3818 13.207 40.6248 14.5503 43.0159 16.9414C45.4069 19.3325 46.7502 22.5755 46.7502 25.957Z" fill="#2E2E2E"/>
<path fill-rule="evenodd" clip-rule="evenodd" d="M0.000244141 34.457C0.000244141 25.4397 3.58238 16.7916 9.95861 10.4154C16.3349 4.03916 24.9829 0.457031 34.0002 0.457031C43.0176 0.457031 51.6656 4.03916 58.0419 10.4154C64.4181 16.7916 68.0002 25.4397 68.0002 34.457C68.0002 43.4744 64.4181 52.1224 58.0419 58.4987C51.6656 64.8749 43.0176 68.457 34.0002 68.457C24.9829 68.457 16.3349 64.8749 9.95861 58.4987C3.58238 52.1224 0.000244141 43.4744 0.000244141 34.457ZM34.0002 4.70703C28.3978 4.70733 22.9093 6.28957 18.1665 9.27165C13.4236 12.2537 9.6192 16.5144 7.19109 21.5634C4.76299 26.6123 3.80989 32.2442 4.44149 37.8109C5.07309 43.3777 7.26372 48.6529 10.7612 53.0295C13.7787 48.1675 20.4215 42.957 34.0002 42.957C47.579 42.957 54.2175 48.1633 57.2392 53.0295C60.7368 48.6529 62.9274 43.3777 63.559 37.8109C64.1906 32.2442 63.2375 26.6123 60.8094 21.5634C58.3813 16.5144 54.5769 12.2537 49.834 9.27165C45.0912 6.28957 39.6027 4.70733 34.0002 4.70703Z" fill="#2E2E2E"/>
</g>
<defs>
<clipPath id="clip0">
<rect width="68" height="68" fill="white" transform="translate(0.000244141 0.457031)"/>
</clipPath>
</defs>
</svg>
