<svg width="170" height="171" viewBox="0 0 170 171" fill="none" xmlns="http://www.w3.org/2000/svg">
<g style="mix-blend-mode:hard-light" filter="url(#filter0_f)">
<path d="M137.424 85.0928C137.74 84.6613 138.064 84.2297 138.37 83.7981C146.254 72.5404 147.915 62.0891 143.056 54.3672C138.564 47.2328 128.913 43.304 115.873 43.304C113.597 43.304 111.239 43.4377 108.827 43.6748C102.966 31.7059 94.5284 24.3081 84.999 24.3081C75.4737 24.3081 67.0365 31.7059 61.1747 43.6748C58.8344 43.4366 56.4839 43.3128 54.1315 43.304C41.0948 43.304 31.4398 47.2328 26.9477 54.3672C22.0847 62.0891 23.7482 72.5404 31.6303 83.7981C31.9342 84.2297 32.2584 84.6613 32.5765 85.0928C32.2564 85.5244 31.9322 85.954 31.6282 86.3896C23.7462 97.6433 22.0827 108.099 26.9456 115.821C31.4378 122.953 41.0927 126.886 54.1295 126.886H54.1335C56.4846 126.877 58.8338 126.753 61.1726 126.513C67.0345 138.486 75.4717 145.882 84.999 145.882C94.5304 145.882 102.968 138.486 108.827 126.513C111.237 126.75 113.597 126.886 115.873 126.886C128.913 126.886 138.564 122.957 143.056 115.821C147.915 108.099 146.254 97.6433 138.37 86.3896C138.064 85.954 137.74 85.5244 137.424 85.0928ZM115.871 46.7891C127.493 46.7891 135.979 50.0979 139.762 56.1097C143.877 62.6463 142.252 71.8109 135.17 81.9157L135.055 82.0677C129.927 75.8918 123.25 69.9468 115.465 64.5895C114.278 58.144 112.533 52.2315 110.345 47.0302C112.229 46.8742 114.079 46.7891 115.871 46.7891ZM100.856 110.281C95.7388 112.979 90.4411 115.321 85.001 117.29C79.5598 115.321 74.2608 112.979 69.1418 110.281C65.3391 108.266 61.6425 106.057 58.0664 103.663C57.0181 97.5295 56.4955 91.3175 56.5042 85.0949C56.5042 78.5927 57.0594 72.3479 58.0664 66.5225C61.6424 64.1295 65.339 61.9221 69.1418 59.9089C74.2597 57.2091 79.5588 54.8679 85.001 52.9022C90.4408 54.8708 95.7384 57.2119 100.856 59.9089C104.658 61.9217 108.354 64.1285 111.93 66.5205C112.979 72.6561 113.502 78.8702 113.492 85.0949C113.492 91.595 112.939 97.8419 111.93 103.667C108.354 106.059 104.658 108.267 100.856 110.281ZM110.953 108.575C109.782 113.74 108.234 118.493 106.386 122.7C101.213 122.007 95.8029 120.777 90.3017 119.071C97.4815 116.188 104.392 112.676 110.953 108.575ZM79.6964 119.071C74.1972 120.777 68.7872 122.007 63.6163 122.7C61.7643 118.493 60.2203 113.74 59.0471 108.575C61.7209 110.248 64.4547 111.822 67.2432 113.296C71.2896 115.439 75.4465 117.366 79.6964 119.071ZM53.7323 100.636C47.1694 95.7873 41.5892 90.5211 37.247 85.0949C41.5892 79.6707 47.1674 74.3984 53.7323 69.5537C53.0433 74.706 52.7008 79.8987 52.7071 85.0969C52.7071 90.4846 53.0637 95.69 53.7323 100.636ZM59.0451 61.617C60.2183 56.4542 61.7623 51.6986 63.6142 47.4922C68.7852 48.1831 74.1952 49.413 79.6964 51.1191C75.4468 52.8248 71.29 54.7531 67.2432 56.8959C64.4543 58.3699 61.7198 59.9447 59.0451 61.617ZM90.3057 51.1171C95.8029 49.413 101.213 48.1831 106.386 47.4902C108.234 51.6966 109.782 56.4501 110.953 61.615C104.394 57.5137 97.4842 54.0007 90.3057 51.1171ZM116.268 69.5517C122.829 74.3984 128.413 79.6686 132.755 85.0949C128.413 90.5211 122.835 95.7933 116.268 100.636C116.936 95.69 117.293 90.4846 117.293 85.0969C117.293 79.7031 116.936 74.4977 116.268 69.5517ZM84.999 28.1073C92.6845 28.1073 99.6669 34.2346 104.795 44.1611C98.4268 45.0952 91.7322 46.783 85.001 49.1375C78.2699 46.783 71.5732 45.0952 65.2048 44.1611C70.3352 34.2346 77.3135 28.1073 84.999 28.1073ZM34.8256 81.9157C27.75 71.8109 26.1189 62.6443 30.2342 56.1097C34.0192 50.0979 42.507 46.7891 54.1295 46.7891C55.9207 46.7891 57.7686 46.8742 59.653 47.0302C57.4606 52.2315 55.718 58.144 54.5286 64.5895C46.7459 69.9468 40.0695 75.8938 34.9411 82.0677C34.9067 82.017 34.8621 81.9664 34.8256 81.9157ZM54.1355 123.399H54.1315C42.5091 123.399 34.0232 120.09 30.2362 114.078C26.121 107.543 27.75 98.3788 34.8276 88.272C34.8641 88.2213 34.9087 88.1727 34.9452 88.1221C40.0735 94.296 46.75 100.243 54.5327 105.602C55.7221 112.046 57.4646 117.962 59.657 123.162C57.7706 123.316 55.9247 123.399 54.1355 123.399ZM84.999 142.082C77.3156 142.082 70.3352 135.957 65.2048 126.027C71.5712 125.093 78.2659 123.403 84.997 121.052C91.7281 123.403 98.4268 125.093 104.795 126.027C99.6648 135.957 92.6845 142.082 84.999 142.082ZM139.766 114.08C135.979 120.092 127.493 123.401 115.871 123.401C114.077 123.401 112.229 123.318 110.345 123.164C112.533 117.96 114.278 112.048 115.465 105.604C123.25 100.245 129.927 94.298 135.055 88.12C135.091 88.1707 135.134 88.2234 135.174 88.274C142.252 98.3808 143.883 107.545 139.766 114.08Z" stroke="#0094FF" stroke-width="3.25"/>
</g>
<g style="mix-blend-mode:hard-light" filter="url(#filter1_f)">
<path d="M137.424 85.0928C137.74 84.6613 138.064 84.2297 138.37 83.7981C146.254 72.5404 147.915 62.0891 143.056 54.3672C138.564 47.2328 128.913 43.304 115.873 43.304C113.597 43.304 111.239 43.4377 108.827 43.6748C102.966 31.7059 94.5284 24.3081 84.999 24.3081C75.4737 24.3081 67.0365 31.7059 61.1747 43.6748C58.8344 43.4366 56.4839 43.3128 54.1315 43.304C41.0948 43.304 31.4398 47.2328 26.9477 54.3672C22.0847 62.0891 23.7482 72.5404 31.6303 83.7981C31.9342 84.2297 32.2584 84.6613 32.5765 85.0928C32.2564 85.5244 31.9322 85.954 31.6282 86.3896C23.7462 97.6433 22.0827 108.099 26.9456 115.821C31.4378 122.953 41.0927 126.886 54.1295 126.886H54.1335C56.4846 126.877 58.8338 126.753 61.1726 126.513C67.0345 138.486 75.4717 145.882 84.999 145.882C94.5304 145.882 102.968 138.486 108.827 126.513C111.237 126.75 113.597 126.886 115.873 126.886C128.913 126.886 138.564 122.957 143.056 115.821C147.915 108.099 146.254 97.6433 138.37 86.3896C138.064 85.954 137.74 85.5244 137.424 85.0928ZM115.871 46.7891C127.493 46.7891 135.979 50.0979 139.762 56.1097C143.877 62.6463 142.252 71.8109 135.17 81.9157L135.055 82.0677C129.927 75.8918 123.25 69.9468 115.465 64.5895C114.278 58.144 112.533 52.2315 110.345 47.0302C112.229 46.8742 114.079 46.7891 115.871 46.7891ZM100.856 110.281C95.7388 112.979 90.4411 115.321 85.001 117.29C79.5598 115.321 74.2608 112.979 69.1418 110.281C65.3391 108.266 61.6425 106.057 58.0664 103.663C57.0181 97.5295 56.4955 91.3175 56.5042 85.0949C56.5042 78.5927 57.0594 72.3479 58.0664 66.5225C61.6424 64.1295 65.339 61.9221 69.1418 59.9089C74.2597 57.2091 79.5588 54.8679 85.001 52.9022C90.4408 54.8708 95.7384 57.2119 100.856 59.9089C104.658 61.9217 108.354 64.1285 111.93 66.5205C112.979 72.6561 113.502 78.8702 113.492 85.0949C113.492 91.595 112.939 97.8419 111.93 103.667C108.354 106.059 104.658 108.267 100.856 110.281ZM110.953 108.575C109.782 113.74 108.234 118.493 106.386 122.7C101.213 122.007 95.8029 120.777 90.3017 119.071C97.4815 116.188 104.392 112.676 110.953 108.575ZM79.6964 119.071C74.1972 120.777 68.7872 122.007 63.6163 122.7C61.7643 118.493 60.2203 113.74 59.0471 108.575C61.7209 110.248 64.4547 111.822 67.2432 113.296C71.2896 115.439 75.4465 117.366 79.6964 119.071ZM53.7323 100.636C47.1694 95.7873 41.5892 90.5211 37.247 85.0949C41.5892 79.6707 47.1674 74.3984 53.7323 69.5537C53.0433 74.706 52.7008 79.8987 52.7071 85.0969C52.7071 90.4846 53.0637 95.69 53.7323 100.636ZM59.0451 61.617C60.2183 56.4542 61.7623 51.6986 63.6142 47.4922C68.7852 48.1831 74.1952 49.413 79.6964 51.1191C75.4468 52.8248 71.29 54.7531 67.2432 56.8959C64.4543 58.3699 61.7198 59.9447 59.0451 61.617ZM90.3057 51.1171C95.8029 49.413 101.213 48.1831 106.386 47.4902C108.234 51.6966 109.782 56.4501 110.953 61.615C104.394 57.5137 97.4842 54.0007 90.3057 51.1171ZM116.268 69.5517C122.829 74.3984 128.413 79.6686 132.755 85.0949C128.413 90.5211 122.835 95.7933 116.268 100.636C116.936 95.69 117.293 90.4846 117.293 85.0969C117.293 79.7031 116.936 74.4977 116.268 69.5517ZM84.999 28.1073C92.6845 28.1073 99.6669 34.2346 104.795 44.1611C98.4268 45.0952 91.7322 46.783 85.001 49.1375C78.2699 46.783 71.5732 45.0952 65.2048 44.1611C70.3352 34.2346 77.3135 28.1073 84.999 28.1073ZM34.8256 81.9157C27.75 71.8109 26.1189 62.6443 30.2342 56.1097C34.0192 50.0979 42.507 46.7891 54.1295 46.7891C55.9207 46.7891 57.7686 46.8742 59.653 47.0302C57.4606 52.2315 55.718 58.144 54.5286 64.5895C46.7459 69.9468 40.0695 75.8938 34.9411 82.0677C34.9067 82.017 34.8621 81.9664 34.8256 81.9157ZM54.1355 123.399H54.1315C42.5091 123.399 34.0232 120.09 30.2362 114.078C26.121 107.543 27.75 98.3788 34.8276 88.272C34.8641 88.2213 34.9087 88.1727 34.9452 88.1221C40.0735 94.296 46.75 100.243 54.5327 105.602C55.7221 112.046 57.4646 117.962 59.657 123.162C57.7706 123.316 55.9247 123.399 54.1355 123.399ZM84.999 142.082C77.3156 142.082 70.3352 135.957 65.2048 126.027C71.5712 125.093 78.2659 123.403 84.997 121.052C91.7281 123.403 98.4268 125.093 104.795 126.027C99.6648 135.957 92.6845 142.082 84.999 142.082ZM139.766 114.08C135.979 120.092 127.493 123.401 115.871 123.401C114.077 123.401 112.229 123.318 110.345 123.164C112.533 117.96 114.278 112.048 115.465 105.604C123.25 100.245 129.927 94.298 135.055 88.12C135.091 88.1707 135.134 88.2234 135.174 88.274C142.252 98.3808 143.883 107.545 139.766 114.08Z" stroke="#0094FF" stroke-width="4.25"/>
</g>
<g style="mix-blend-mode:hard-light" filter="url(#filter2_ddi)">
<path d="M137.424 85.0928C137.74 84.6613 138.064 84.2297 138.37 83.7981C146.254 72.5404 147.915 62.0891 143.056 54.3672C138.564 47.2328 128.913 43.304 115.873 43.304C113.597 43.304 111.239 43.4377 108.827 43.6748C102.966 31.7059 94.5284 24.3081 84.999 24.3081C75.4737 24.3081 67.0365 31.7059 61.1747 43.6748C58.8344 43.4366 56.4839 43.3128 54.1315 43.304C41.0948 43.304 31.4398 47.2328 26.9477 54.3672C22.0847 62.0891 23.7482 72.5404 31.6303 83.7981C31.9342 84.2297 32.2584 84.6613 32.5765 85.0928C32.2564 85.5244 31.9322 85.954 31.6282 86.3896C23.7462 97.6433 22.0827 108.099 26.9456 115.821C31.4378 122.953 41.0927 126.886 54.1295 126.886H54.1335C56.4846 126.877 58.8338 126.753 61.1726 126.513C67.0345 138.486 75.4717 145.882 84.999 145.882C94.5304 145.882 102.968 138.486 108.827 126.513C111.237 126.75 113.597 126.886 115.873 126.886C128.913 126.886 138.564 122.957 143.056 115.821C147.915 108.099 146.254 97.6433 138.37 86.3896C138.064 85.954 137.74 85.5244 137.424 85.0928ZM115.871 46.7891C127.493 46.7891 135.979 50.0979 139.762 56.1097C143.877 62.6463 142.252 71.8109 135.17 81.9157L135.055 82.0677C129.927 75.8918 123.25 69.9468 115.465 64.5895C114.278 58.144 112.533 52.2315 110.345 47.0302C112.229 46.8742 114.079 46.7891 115.871 46.7891ZM100.856 110.281C95.7388 112.979 90.4411 115.321 85.001 117.29C79.5598 115.321 74.2608 112.979 69.1418 110.281C65.3391 108.266 61.6425 106.057 58.0664 103.663C57.0181 97.5295 56.4955 91.3175 56.5042 85.0949C56.5042 78.5927 57.0594 72.3479 58.0664 66.5225C61.6424 64.1295 65.339 61.9221 69.1418 59.9089C74.2597 57.2091 79.5588 54.8679 85.001 52.9022C90.4408 54.8708 95.7384 57.2119 100.856 59.9089C104.658 61.9217 108.354 64.1285 111.93 66.5205C112.979 72.6561 113.502 78.8702 113.492 85.0949C113.492 91.595 112.939 97.8419 111.93 103.667C108.354 106.059 104.658 108.267 100.856 110.281ZM110.953 108.575C109.782 113.74 108.234 118.493 106.386 122.7C101.213 122.007 95.8029 120.777 90.3017 119.071C97.4815 116.188 104.392 112.676 110.953 108.575ZM79.6964 119.071C74.1972 120.777 68.7872 122.007 63.6163 122.7C61.7643 118.493 60.2203 113.74 59.0471 108.575C61.7209 110.248 64.4547 111.822 67.2432 113.296C71.2896 115.439 75.4465 117.366 79.6964 119.071ZM53.7323 100.636C47.1694 95.7873 41.5892 90.5211 37.247 85.0949C41.5892 79.6707 47.1674 74.3984 53.7323 69.5537C53.0433 74.706 52.7008 79.8987 52.7071 85.0969C52.7071 90.4846 53.0637 95.69 53.7323 100.636ZM59.0451 61.617C60.2183 56.4542 61.7623 51.6986 63.6142 47.4922C68.7852 48.1831 74.1952 49.413 79.6964 51.1191C75.4468 52.8248 71.29 54.7531 67.2432 56.8959C64.4543 58.3699 61.7198 59.9447 59.0451 61.617ZM90.3057 51.1171C95.8029 49.413 101.213 48.1831 106.386 47.4902C108.234 51.6966 109.782 56.4501 110.953 61.615C104.394 57.5137 97.4842 54.0007 90.3057 51.1171ZM116.268 69.5517C122.829 74.3984 128.413 79.6686 132.755 85.0949C128.413 90.5211 122.835 95.7933 116.268 100.636C116.936 95.69 117.293 90.4846 117.293 85.0969C117.293 79.7031 116.936 74.4977 116.268 69.5517ZM84.999 28.1073C92.6845 28.1073 99.6669 34.2346 104.795 44.1611C98.4268 45.0952 91.7322 46.783 85.001 49.1375C78.2699 46.783 71.5732 45.0952 65.2048 44.1611C70.3352 34.2346 77.3135 28.1073 84.999 28.1073ZM34.8256 81.9157C27.75 71.8109 26.1189 62.6443 30.2342 56.1097C34.0192 50.0979 42.507 46.7891 54.1295 46.7891C55.9207 46.7891 57.7686 46.8742 59.653 47.0302C57.4606 52.2315 55.718 58.144 54.5286 64.5895C46.7459 69.9468 40.0695 75.8938 34.9411 82.0677C34.9067 82.017 34.8621 81.9664 34.8256 81.9157ZM54.1355 123.399H54.1315C42.5091 123.399 34.0232 120.09 30.2362 114.078C26.121 107.543 27.75 98.3788 34.8276 88.272C34.8641 88.2213 34.9087 88.1727 34.9452 88.1221C40.0735 94.296 46.75 100.243 54.5327 105.602C55.7221 112.046 57.4646 117.962 59.657 123.162C57.7706 123.316 55.9247 123.399 54.1355 123.399ZM84.999 142.082C77.3156 142.082 70.3352 135.957 65.2048 126.027C71.5712 125.093 78.2659 123.403 84.997 121.052C91.7281 123.403 98.4268 125.093 104.795 126.027C99.6648 135.957 92.6845 142.082 84.999 142.082ZM139.766 114.08C135.979 120.092 127.493 123.401 115.871 123.401C114.077 123.401 112.229 123.318 110.345 123.164C112.533 117.96 114.278 112.048 115.465 105.604C123.25 100.245 129.927 94.298 135.055 88.12C135.091 88.1707 135.134 88.2234 135.174 88.274C142.252 98.3808 143.883 107.545 139.766 114.08Z" stroke="#00B3FF" stroke-opacity="0.2" stroke-width="3.25"/>
</g>
<g filter="url(#filter3_f)">
<path d="M137.424 85.0928C137.74 84.6613 138.064 84.2297 138.37 83.7981C146.254 72.5404 147.915 62.0891 143.056 54.3672C138.564 47.2328 128.913 43.304 115.873 43.304C113.597 43.304 111.239 43.4377 108.827 43.6748C102.966 31.7059 94.5284 24.3081 84.999 24.3081C75.4737 24.3081 67.0365 31.7059 61.1747 43.6748C58.8344 43.4366 56.4839 43.3128 54.1315 43.304C41.0948 43.304 31.4398 47.2328 26.9477 54.3672C22.0847 62.0891 23.7482 72.5404 31.6303 83.7981C31.9342 84.2297 32.2584 84.6613 32.5765 85.0928C32.2564 85.5244 31.9322 85.954 31.6282 86.3896C23.7462 97.6433 22.0827 108.099 26.9456 115.821C31.4378 122.953 41.0927 126.886 54.1295 126.886H54.1335C56.4846 126.877 58.8338 126.753 61.1726 126.513C67.0345 138.486 75.4717 145.882 84.999 145.882C94.5304 145.882 102.968 138.486 108.827 126.513C111.237 126.75 113.597 126.886 115.873 126.886C128.913 126.886 138.564 122.957 143.056 115.821C147.915 108.099 146.254 97.6433 138.37 86.3896C138.064 85.954 137.74 85.5244 137.424 85.0928ZM115.871 46.7891C127.493 46.7891 135.979 50.0979 139.762 56.1097C143.877 62.6463 142.252 71.8109 135.17 81.9157L135.055 82.0677C129.927 75.8918 123.25 69.9468 115.465 64.5895C114.278 58.144 112.533 52.2315 110.345 47.0302C112.229 46.8742 114.079 46.7891 115.871 46.7891ZM100.856 110.281C95.7388 112.979 90.4411 115.321 85.001 117.29C79.5598 115.321 74.2608 112.979 69.1418 110.281C65.3391 108.266 61.6425 106.057 58.0664 103.663C57.0181 97.5295 56.4955 91.3175 56.5042 85.0949C56.5042 78.5927 57.0594 72.3479 58.0664 66.5225C61.6424 64.1295 65.339 61.9221 69.1418 59.9089C74.2597 57.2091 79.5588 54.8679 85.001 52.9022C90.4408 54.8708 95.7384 57.2119 100.856 59.9089C104.658 61.9217 108.354 64.1285 111.93 66.5205C112.979 72.6561 113.502 78.8702 113.492 85.0949C113.492 91.595 112.939 97.8419 111.93 103.667C108.354 106.059 104.658 108.267 100.856 110.281ZM110.953 108.575C109.782 113.74 108.234 118.493 106.386 122.7C101.213 122.007 95.8029 120.777 90.3017 119.071C97.4815 116.188 104.392 112.676 110.953 108.575ZM79.6964 119.071C74.1972 120.777 68.7872 122.007 63.6163 122.7C61.7643 118.493 60.2203 113.74 59.0471 108.575C61.7209 110.248 64.4547 111.822 67.2432 113.296C71.2896 115.439 75.4465 117.366 79.6964 119.071ZM53.7323 100.636C47.1694 95.7873 41.5892 90.5211 37.247 85.0949C41.5892 79.6707 47.1674 74.3984 53.7323 69.5537C53.0433 74.706 52.7008 79.8987 52.7071 85.0969C52.7071 90.4846 53.0637 95.69 53.7323 100.636ZM59.0451 61.617C60.2183 56.4542 61.7623 51.6986 63.6142 47.4922C68.7852 48.1831 74.1952 49.413 79.6964 51.1191C75.4468 52.8248 71.29 54.7531 67.2432 56.8959C64.4543 58.3699 61.7198 59.9447 59.0451 61.617ZM90.3057 51.1171C95.8029 49.413 101.213 48.1831 106.386 47.4902C108.234 51.6966 109.782 56.4501 110.953 61.615C104.394 57.5137 97.4842 54.0007 90.3057 51.1171ZM116.268 69.5517C122.829 74.3984 128.413 79.6686 132.755 85.0949C128.413 90.5211 122.835 95.7933 116.268 100.636C116.936 95.69 117.293 90.4846 117.293 85.0969C117.293 79.7031 116.936 74.4977 116.268 69.5517ZM84.999 28.1073C92.6845 28.1073 99.6669 34.2346 104.795 44.1611C98.4268 45.0952 91.7322 46.783 85.001 49.1375C78.2699 46.783 71.5732 45.0952 65.2048 44.1611C70.3352 34.2346 77.3135 28.1073 84.999 28.1073ZM34.8256 81.9157C27.75 71.8109 26.1189 62.6443 30.2342 56.1097C34.0192 50.0979 42.507 46.7891 54.1295 46.7891C55.9207 46.7891 57.7686 46.8742 59.653 47.0302C57.4606 52.2315 55.718 58.144 54.5286 64.5895C46.7459 69.9468 40.0695 75.8938 34.9411 82.0677C34.9067 82.017 34.8621 81.9664 34.8256 81.9157ZM54.1355 123.399H54.1315C42.5091 123.399 34.0232 120.09 30.2362 114.078C26.121 107.543 27.75 98.3788 34.8276 88.272C34.8641 88.2213 34.9087 88.1727 34.9452 88.1221C40.0735 94.296 46.75 100.243 54.5327 105.602C55.7221 112.046 57.4646 117.962 59.657 123.162C57.7706 123.316 55.9247 123.399 54.1355 123.399ZM84.999 142.082C77.3156 142.082 70.3352 135.957 65.2048 126.027C71.5712 125.093 78.2659 123.403 84.997 121.052C91.7281 123.403 98.4268 125.093 104.795 126.027C99.6648 135.957 92.6845 142.082 84.999 142.082ZM139.766 114.08C135.979 120.092 127.493 123.401 115.871 123.401C114.077 123.401 112.229 123.318 110.345 123.164C112.533 117.96 114.278 112.048 115.465 105.604C123.25 100.245 129.927 94.298 135.055 88.12C135.091 88.1707 135.134 88.2234 135.174 88.274C142.252 98.3808 143.883 107.545 139.766 114.08Z" stroke="#82D9FF" stroke-width="2"/>
</g>
<g filter="url(#filter4_f)">
<path d="M137.424 85.0928C137.74 84.6613 138.064 84.2297 138.37 83.7981C146.254 72.5404 147.915 62.0891 143.056 54.3672C138.564 47.2328 128.913 43.304 115.873 43.304C113.597 43.304 111.239 43.4377 108.827 43.6748C102.966 31.7059 94.5284 24.3081 84.999 24.3081C75.4737 24.3081 67.0365 31.7059 61.1747 43.6748C58.8344 43.4366 56.4839 43.3128 54.1315 43.304C41.0948 43.304 31.4398 47.2328 26.9477 54.3672C22.0847 62.0891 23.7482 72.5404 31.6303 83.7981C31.9342 84.2297 32.2584 84.6613 32.5765 85.0928C32.2564 85.5244 31.9322 85.954 31.6282 86.3896C23.7462 97.6433 22.0827 108.099 26.9456 115.821C31.4378 122.953 41.0927 126.886 54.1295 126.886H54.1335C56.4846 126.877 58.8338 126.753 61.1726 126.513C67.0345 138.486 75.4717 145.882 84.999 145.882C94.5304 145.882 102.968 138.486 108.827 126.513C111.237 126.75 113.597 126.886 115.873 126.886C128.913 126.886 138.564 122.957 143.056 115.821C147.915 108.099 146.254 97.6433 138.37 86.3896C138.064 85.954 137.74 85.5244 137.424 85.0928ZM115.871 46.7891C127.493 46.7891 135.979 50.0979 139.762 56.1097C143.877 62.6463 142.252 71.8109 135.17 81.9157L135.055 82.0677C129.927 75.8918 123.25 69.9468 115.465 64.5895C114.278 58.144 112.533 52.2315 110.345 47.0302C112.229 46.8742 114.079 46.7891 115.871 46.7891ZM100.856 110.281C95.7388 112.979 90.4411 115.321 85.001 117.29C79.5598 115.321 74.2608 112.979 69.1418 110.281C65.3391 108.266 61.6425 106.057 58.0664 103.663C57.0181 97.5295 56.4955 91.3175 56.5042 85.0949C56.5042 78.5927 57.0594 72.3479 58.0664 66.5225C61.6424 64.1295 65.339 61.9221 69.1418 59.9089C74.2597 57.2091 79.5588 54.8679 85.001 52.9022C90.4408 54.8708 95.7384 57.2119 100.856 59.9089C104.658 61.9217 108.354 64.1285 111.93 66.5205C112.979 72.6561 113.502 78.8702 113.492 85.0949C113.492 91.595 112.939 97.8419 111.93 103.667C108.354 106.059 104.658 108.267 100.856 110.281ZM110.953 108.575C109.782 113.74 108.234 118.493 106.386 122.7C101.213 122.007 95.8029 120.777 90.3017 119.071C97.4815 116.188 104.392 112.676 110.953 108.575ZM79.6964 119.071C74.1972 120.777 68.7872 122.007 63.6163 122.7C61.7643 118.493 60.2203 113.74 59.0471 108.575C61.7209 110.248 64.4547 111.822 67.2432 113.296C71.2896 115.439 75.4465 117.366 79.6964 119.071ZM53.7323 100.636C47.1694 95.7873 41.5892 90.5211 37.247 85.0949C41.5892 79.6707 47.1674 74.3984 53.7323 69.5537C53.0433 74.706 52.7008 79.8987 52.7071 85.0969C52.7071 90.4846 53.0637 95.69 53.7323 100.636ZM59.0451 61.617C60.2183 56.4542 61.7623 51.6986 63.6142 47.4922C68.7852 48.1831 74.1952 49.413 79.6964 51.1191C75.4468 52.8248 71.29 54.7531 67.2432 56.8959C64.4543 58.3699 61.7198 59.9447 59.0451 61.617ZM90.3057 51.1171C95.8029 49.413 101.213 48.1831 106.386 47.4902C108.234 51.6966 109.782 56.4501 110.953 61.615C104.394 57.5137 97.4842 54.0007 90.3057 51.1171ZM116.268 69.5517C122.829 74.3984 128.413 79.6686 132.755 85.0949C128.413 90.5211 122.835 95.7933 116.268 100.636C116.936 95.69 117.293 90.4846 117.293 85.0969C117.293 79.7031 116.936 74.4977 116.268 69.5517ZM84.999 28.1073C92.6845 28.1073 99.6669 34.2346 104.795 44.1611C98.4268 45.0952 91.7322 46.783 85.001 49.1375C78.2699 46.783 71.5732 45.0952 65.2048 44.1611C70.3352 34.2346 77.3135 28.1073 84.999 28.1073ZM34.8256 81.9157C27.75 71.8109 26.1189 62.6443 30.2342 56.1097C34.0192 50.0979 42.507 46.7891 54.1295 46.7891C55.9207 46.7891 57.7686 46.8742 59.653 47.0302C57.4606 52.2315 55.718 58.144 54.5286 64.5895C46.7459 69.9468 40.0695 75.8938 34.9411 82.0677C34.9067 82.017 34.8621 81.9664 34.8256 81.9157ZM54.1355 123.399H54.1315C42.5091 123.399 34.0232 120.09 30.2362 114.078C26.121 107.543 27.75 98.3788 34.8276 88.272C34.8641 88.2213 34.9087 88.1727 34.9452 88.1221C40.0735 94.296 46.75 100.243 54.5327 105.602C55.7221 112.046 57.4646 117.962 59.657 123.162C57.7706 123.316 55.9247 123.399 54.1355 123.399ZM84.999 142.082C77.3156 142.082 70.3352 135.957 65.2048 126.027C71.5712 125.093 78.2659 123.403 84.997 121.052C91.7281 123.403 98.4268 125.093 104.795 126.027C99.6648 135.957 92.6845 142.082 84.999 142.082ZM139.766 114.08C135.979 120.092 127.493 123.401 115.871 123.401C114.077 123.401 112.229 123.318 110.345 123.164C112.533 117.96 114.278 112.048 115.465 105.604C123.25 100.245 129.927 94.298 135.055 88.12C135.091 88.1707 135.134 88.2234 135.174 88.274C142.252 98.3808 143.883 107.545 139.766 114.08Z" stroke="white"/>
</g>
<g style="mix-blend-mode:hard-light" filter="url(#filter5_f)">
<path d="M96.0467 85.0953C96.0467 91.1967 91.1005 96.1429 84.9991 96.1429C78.8977 96.1429 73.9515 91.1967 73.9515 85.0953C73.9515 78.9938 78.8977 74.0477 84.9991 74.0477C91.1005 74.0477 96.0467 78.9938 96.0467 85.0953Z" stroke="#0094FF" stroke-width="0.699829"/>
</g>
<g style="mix-blend-mode:hard-light" filter="url(#filter6_f)">
<path d="M95.939 85.0953C95.939 91.1372 91.041 96.0352 84.9991 96.0352C78.9571 96.0352 74.0591 91.1372 74.0591 85.0953C74.0591 79.0533 78.9571 74.1553 84.9991 74.1553C91.041 74.1553 95.939 79.0533 95.939 85.0953Z" stroke="#0094FF" stroke-width="0.915161"/>
</g>
<g style="mix-blend-mode:hard-light" filter="url(#filter7_ddi)">
<path d="M96.0467 85.0953C96.0467 91.1967 91.1005 96.1429 84.9991 96.1429C78.8977 96.1429 73.9515 91.1967 73.9515 85.0953C73.9515 78.9938 78.8977 74.0477 84.9991 74.0477C91.1005 74.0477 96.0467 78.9938 96.0467 85.0953Z" stroke="#00B3FF" stroke-opacity="0.2" stroke-width="0.699829"/>
</g>
<g filter="url(#filter8_f)">
<path d="M96.1813 85.0953C96.1813 91.271 91.1748 96.2775 84.9991 96.2775C78.8233 96.2775 73.8169 91.271 73.8169 85.0953C73.8169 78.9195 78.8233 73.9131 84.9991 73.9131C91.1748 73.9131 96.1813 78.9195 96.1813 85.0953Z" stroke="#82D9FF" stroke-width="0.430664"/>
</g>
<g filter="url(#filter9_f)">
<path d="M96.2889 85.0953C96.2889 91.3305 91.2343 96.3851 84.9991 96.3851C78.7639 96.3851 73.7092 91.3305 73.7092 85.0953C73.7092 78.8601 78.7639 73.8054 84.9991 73.8054C91.2343 73.8054 96.2889 78.8601 96.2889 85.0953Z" stroke="white" stroke-width="0.215332"/>
</g>
<defs>
<filter id="filter0_f" x="0.0830078" y="0.183105" width="169.833" height="169.824" filterUnits="userSpaceOnUse" color-interpolation-filters="sRGB">
<feFlood flood-opacity="0" result="BackgroundImageFix"/>
<feBlend mode="normal" in="SourceGraphic" in2="BackgroundImageFix" result="shape"/>
<feGaussianBlur stdDeviation="11.25" result="effect1_foregroundBlur"/>
</filter>
<filter id="filter1_f" x="14.582" y="14.6831" width="140.835" height="140.824" filterUnits="userSpaceOnUse" color-interpolation-filters="sRGB">
<feFlood flood-opacity="0" result="BackgroundImageFix"/>
<feBlend mode="normal" in="SourceGraphic" in2="BackgroundImageFix" result="shape"/>
<feGaussianBlur stdDeviation="3.75" result="effect1_foregroundBlur"/>
</filter>
<filter id="filter2_ddi" x="12.833" y="20.4331" width="144.333" height="144.324" filterUnits="userSpaceOnUse" color-interpolation-filters="sRGB">
<feFlood flood-opacity="0" result="BackgroundImageFix"/>
<feColorMatrix in="SourceAlpha" type="matrix" values="0 0 0 0 0 0 0 0 0 0 0 0 0 0 0 0 0 0 127 0" result="hardAlpha"/>
<feOffset dy="3.25"/>
<feGaussianBlur stdDeviation="1.25"/>
<feColorMatrix type="matrix" values="0 0 0 0 0 0 0 0 0 0.051 0 0 0 0 0.082 0 0 0 0.7 0"/>
<feBlend mode="multiply" in2="BackgroundImageFix" result="effect1_dropShadow"/>
<feColorMatrix in="SourceAlpha" type="matrix" values="0 0 0 0 0 0 0 0 0 0 0 0 0 0 0 0 0 0 127 0" result="hardAlpha"/>
<feOffset dy="7.5"/>
<feGaussianBlur stdDeviation="4.875"/>
<feColorMatrix type="matrix" values="0 0 0 0 0 0 0 0 0 0.4 0 0 0 0 1 0 0 0 1 0"/>
<feBlend mode="color-dodge" in2="effect1_dropShadow" result="effect2_dropShadow"/>
<feBlend mode="normal" in="SourceGraphic" in2="effect2_dropShadow" result="shape"/>
<feColorMatrix in="SourceAlpha" type="matrix" values="0 0 0 0 0 0 0 0 0 0 0 0 0 0 0 0 0 0 127 0" result="hardAlpha"/>
<feOffset dx="-0.325" dy="0.65"/>
<feGaussianBlur stdDeviation="0.1625"/>
<feComposite in2="hardAlpha" operator="arithmetic" k2="-1" k3="1"/>
<feColorMatrix type="matrix" values="0 0 0 0 1 0 0 0 0 1 0 0 0 0 1 0 0 0 0.5 0"/>
<feBlend mode="normal" in2="shape" result="effect3_innerShadow"/>
</filter>
<filter id="filter3_f" x="22.71" y="22.8081" width="124.58" height="124.574" filterUnits="userSpaceOnUse" color-interpolation-filters="sRGB">
<feFlood flood-opacity="0" result="BackgroundImageFix"/>
<feBlend mode="normal" in="SourceGraphic" in2="BackgroundImageFix" result="shape"/>
<feGaussianBlur stdDeviation="0.25" result="effect1_foregroundBlur"/>
</filter>
<filter id="filter4_f" x="23.3776" y="23.4748" width="123.245" height="123.24" filterUnits="userSpaceOnUse" color-interpolation-filters="sRGB">
<feFlood flood-opacity="0" result="BackgroundImageFix"/>
<feBlend mode="normal" in="SourceGraphic" in2="BackgroundImageFix" result="shape"/>
<feGaussianBlur stdDeviation="0.166667" result="effect1_foregroundBlur"/>
</filter>
<filter id="filter5_f" x="68.7566" y="68.8528" width="32.485" height="32.485" filterUnits="userSpaceOnUse" color-interpolation-filters="sRGB">
<feFlood flood-opacity="0" result="BackgroundImageFix"/>
<feBlend mode="normal" in="SourceGraphic" in2="BackgroundImageFix" result="shape"/>
<feGaussianBlur stdDeviation="2.42249" result="effect1_foregroundBlur"/>
</filter>
<filter id="filter6_f" x="71.9866" y="72.0828" width="26.025" height="26.025" filterUnits="userSpaceOnUse" color-interpolation-filters="sRGB">
<feFlood flood-opacity="0" result="BackgroundImageFix"/>
<feBlend mode="normal" in="SourceGraphic" in2="BackgroundImageFix" result="shape"/>
<feGaussianBlur stdDeviation="0.807495" result="effect1_foregroundBlur"/>
</filter>
<filter id="filter7_ddi" x="71.5021" y="73.2133" width="26.994" height="26.994" filterUnits="userSpaceOnUse" color-interpolation-filters="sRGB">
<feFlood flood-opacity="0" result="BackgroundImageFix"/>
<feColorMatrix in="SourceAlpha" type="matrix" values="0 0 0 0 0 0 0 0 0 0 0 0 0 0 0 0 0 0 127 0" result="hardAlpha"/>
<feOffset dy="0.699829"/>
<feGaussianBlur stdDeviation="0.269165"/>
<feColorMatrix type="matrix" values="0 0 0 0 0 0 0 0 0 0.051 0 0 0 0 0.082 0 0 0 0.7 0"/>
<feBlend mode="multiply" in2="BackgroundImageFix" result="effect1_dropShadow"/>
<feColorMatrix in="SourceAlpha" type="matrix" values="0 0 0 0 0 0 0 0 0 0 0 0 0 0 0 0 0 0 127 0" result="hardAlpha"/>
<feOffset dy="1.61499"/>
<feGaussianBlur stdDeviation="1.04974"/>
<feColorMatrix type="matrix" values="0 0 0 0 0 0 0 0 0 0.4 0 0 0 0 1 0 0 0 1 0"/>
<feBlend mode="color-dodge" in2="effect1_dropShadow" result="effect2_dropShadow"/>
<feBlend mode="normal" in="SourceGraphic" in2="effect2_dropShadow" result="shape"/>
<feColorMatrix in="SourceAlpha" type="matrix" values="0 0 0 0 0 0 0 0 0 0 0 0 0 0 0 0 0 0 127 0" result="hardAlpha"/>
<feOffset dx="-0.0699829" dy="0.139966"/>
<feGaussianBlur stdDeviation="0.0349915"/>
<feComposite in2="hardAlpha" operator="arithmetic" k2="-1" k3="1"/>
<feColorMatrix type="matrix" values="0 0 0 0 1 0 0 0 0 1 0 0 0 0 1 0 0 0 0.5 0"/>
<feBlend mode="normal" in2="shape" result="effect3_innerShadow"/>
</filter>
<filter id="filter8_f" x="73.4939" y="73.5901" width="23.0104" height="23.0104" filterUnits="userSpaceOnUse" color-interpolation-filters="sRGB">
<feFlood flood-opacity="0" result="BackgroundImageFix"/>
<feBlend mode="normal" in="SourceGraphic" in2="BackgroundImageFix" result="shape"/>
<feGaussianBlur stdDeviation="0.053833" result="effect1_foregroundBlur"/>
</filter>
<filter id="filter9_f" x="73.5298" y="73.626" width="22.9386" height="22.9386" filterUnits="userSpaceOnUse" color-interpolation-filters="sRGB">
<feFlood flood-opacity="0" result="BackgroundImageFix"/>
<feBlend mode="normal" in="SourceGraphic" in2="BackgroundImageFix" result="shape"/>
<feGaussianBlur stdDeviation="0.0358887" result="effect1_foregroundBlur"/>
</filter>
</defs>
</svg>
