<svg width="68" height="69" viewBox="0 0 68 69" fill="none" xmlns="http://www.w3.org/2000/svg">
<path d="M51.001 27.7051H46.751C46.7493 26.0148 46.0771 24.3943 44.8819 23.1991C43.6867 22.004 42.0662 21.3318 40.376 21.3301V17.0801C43.1929 17.0835 45.8934 18.204 47.8853 20.1958C49.8771 22.1876 50.9976 24.8882 51.001 27.7051Z" fill="#4EB1F6"/>
<path d="M59.501 27.7051H55.251C55.2465 23.7614 53.6778 19.9805 50.8892 17.1918C48.1006 14.4032 44.3197 12.8346 40.376 12.8301V8.58008C45.4465 8.5857 50.3078 10.6025 53.8932 14.1879C57.4786 17.7733 59.4954 22.6345 59.501 27.7051Z" fill="#4EB1F6"/>
<path d="M43.2085 45.7293L47.9685 40.9693C48.6057 40.332 49.4158 39.8957 50.2986 39.7144C51.1813 39.5331 52.0979 39.6148 52.9346 39.9493L58.7316 42.2698C59.5861 42.6117 60.3184 43.2017 60.8343 43.9638C61.3502 44.7259 61.6259 45.6251 61.6259 46.5453V57.0875C61.6274 57.7141 61.501 58.3343 61.2544 58.9104C61.0079 59.4864 60.6464 60.0061 60.192 60.4375C59.7377 60.869 59.2 61.2032 58.612 61.4197C58.0241 61.6362 57.3981 61.7304 56.7724 61.6966C16.1381 59.1678 7.93139 24.7513 6.40777 11.5721C6.33398 10.9278 6.39743 10.2752 6.59395 9.65713C6.79047 9.0391 7.11561 8.46968 7.54798 7.98632C7.98035 7.50296 8.51016 7.11662 9.10255 6.85271C9.69495 6.58879 10.3365 6.45328 10.985 6.4551H21.3401C22.2604 6.45507 23.1596 6.73078 23.9217 7.24666C24.6838 7.76254 25.2738 8.49493 25.6156 9.34935L27.934 15.1463C28.2686 15.9831 28.3503 16.8997 28.169 17.7824C27.9877 18.6652 27.5513 19.4753 26.914 20.1125L22.154 24.8725C22.154 24.8725 24.7933 43.428 43.2085 45.7293Z" fill="#4EB1F6"/>
</svg>
