<svg width="41" height="42" viewBox="0 0 41 42" fill="none" xmlns="http://www.w3.org/2000/svg">
<g clip-path="url(#clip0)">
<circle cx="20.2368" cy="20" r="20" fill="white"/>
<path d="M20.1435 5.58405e-05C14.8553 0.0253669 9.79221 2.1977 6.06164 6.04186C2.33108 9.88602 0.236759 15.0891 0.236816 20.5129C0.236816 25.9532 2.34395 31.1707 6.09468 35.0176C9.84541 38.8645 14.9325 41.0257 20.2368 41.0257C25.5411 41.0257 30.6282 38.8645 34.379 35.0176C38.1297 31.1707 40.2368 25.9532 40.2368 20.5129C40.2368 15.0725 38.1297 9.85502 34.379 6.00812C30.6282 2.16122 25.5411 5.58405e-05 20.2368 5.58405e-05C20.2057 -1.86135e-05 20.1746 -1.86135e-05 20.1435 5.58405e-05ZM28.4135 12.3488C28.5801 12.3454 28.9485 12.3881 29.1885 12.5881C29.348 12.7301 29.4497 12.9284 29.4735 13.1436C29.5001 13.3026 29.5335 13.6667 29.5068 13.9505C29.2068 17.1949 27.9035 25.065 27.2401 28.6975C26.9601 30.236 26.4085 30.7505 25.8735 30.8001C24.7135 30.9112 23.8318 30.0137 22.7068 29.2582C20.9468 28.0736 19.9518 27.3368 18.2435 26.1813C16.2685 24.8479 17.5485 24.1129 18.6735 22.9163C18.9685 22.6018 24.0851 17.8274 24.1852 17.3949C24.1968 17.3402 24.2085 17.1385 24.0918 17.0325C23.9751 16.9266 23.8018 16.9625 23.6768 16.9915C23.5001 17.0325 20.6885 18.9402 15.2418 22.7095C14.4418 23.2736 13.7201 23.5471 13.0718 23.53C12.3585 23.5163 10.9851 23.118 9.96348 22.7778C8.71015 22.359 7.71515 22.1385 7.80182 21.4291C7.84682 21.0599 8.34348 20.6821 9.29015 20.2958C15.1201 17.6907 19.0068 15.9727 20.9535 15.1436C26.5068 12.7744 27.6618 12.3625 28.4135 12.3488Z" fill="#4EB1F6"/>
</g>
<defs>
<clipPath id="clip0">
<rect width="40" height="41.0256" fill="white" transform="translate(0.236816)"/>
</clipPath>
</defs>
</svg>
