<svg width="203" height="129" viewBox="0 0 203 129" fill="none" xmlns="http://www.w3.org/2000/svg">
<g style="mix-blend-mode:hard-light" filter="url(#filter0_f)">
<path d="M26.7356 100.878V102.642H28.5H58.4769H60.2413V100.878V90.2343V88.4699H58.4769H53.6126L56.3049 81.2329H78.8273L81.3564 88.4699H76.9242H75.1599V90.2343V100.878V102.642H76.9242H107.508H109.272V100.878V90.2343V88.4699H107.508H97.5806L75.7921 28.2203L75.371 27.0559H74.1329H48.2823H46.518V28.8203V39.4638V41.2281H48.2823H56.8954L39.0527 88.4699H28.5H26.7356V90.2343V100.878ZM110.719 100.855L110.696 102.642H112.483H129.353H130.301L130.824 101.851L143.166 83.1903H150.04V89.5709H144.402H142.637V91.3353V101V102.764H144.402H174.5H176.264V101V91.3353V89.5709H174.5H165.463V57.7438H174.5H176.264V55.9795V47.0488V45.2844H174.5H142.338C134.068 45.2844 127.567 46.9011 123.151 50.4438C118.788 53.9444 116.544 58.4793 116.544 63.9315C116.544 68.3712 117.832 72.1868 120.498 75.245L120.507 75.2552L120.516 75.2652C122.6 77.583 125.163 79.3828 128.173 80.6784L121.886 89.5709H112.604H110.862L110.84 91.3129L110.719 100.855ZM135.015 59.4397L135.038 59.4303L135.059 59.4204C137.291 58.4044 139.985 57.8662 143.188 57.8662H150.04V71.0978H142.945C139.494 71.0978 136.808 70.517 134.792 69.4688C133.929 69.0008 133.343 68.4157 132.958 67.7235C132.567 67.0187 132.331 66.1042 132.331 64.9102C132.331 63.2616 132.614 62.0614 133.066 61.2102C133.499 60.3928 134.128 59.8148 135.015 59.4397ZM60.8173 68.5287L67.8885 47.686L74.5122 68.5287H60.8173Z" stroke="#0094FF" stroke-width="3.52875"/>
</g>
<g style="mix-blend-mode:hard-light" filter="url(#filter1_f)">
<path d="M26.1927 100.878V103.185H28.5H58.4769H60.7842V100.878V90.2343V87.927H58.4769H54.3938L56.6821 81.7757H78.4419L80.5916 87.927H76.9242H74.617V90.2343V100.878V103.185H76.9242H107.508H109.815V100.878V90.2343V87.927H107.508H97.9616L76.3026 28.0357L75.752 26.5131H74.1329H48.2823H45.9751V28.8203V39.4638V41.771H48.2823H56.1101L38.6774 87.927H28.5H26.1927V90.2343V100.878ZM110.176 100.848L110.146 103.185H112.483H129.353H130.593L131.277 102.15L143.457 83.7332H149.498V89.0281H144.402H142.094V91.3353V101V103.307H144.402H174.5H176.807V101V91.3353V89.0281H174.5H166.006V58.2867H174.5H176.807V55.9795V47.0488V44.7415H174.5H142.338C134.013 44.7415 127.366 46.3663 122.811 50.0203C118.325 53.6194 116.001 58.3074 116.001 63.9315C116.001 68.4825 117.324 72.4307 120.089 75.6018L120.1 75.615L120.112 75.6281C122.11 77.8505 124.534 79.6045 127.348 80.9048L121.605 89.0281H112.604H110.326L110.297 91.306L110.176 100.848ZM135.227 59.9397L135.256 59.9275L135.284 59.9145C137.431 58.9373 140.045 58.4091 143.188 58.4091H149.498V70.5549H142.945C139.552 70.5549 136.962 69.9837 135.046 68.9892C134.267 68.5656 133.761 68.0515 133.433 67.4599C133.095 66.8519 132.873 66.0324 132.873 64.9102C132.873 63.319 133.148 62.2138 133.545 61.4645C133.919 60.7595 134.452 60.2671 135.227 59.9397ZM61.5747 67.9858L67.8717 49.4255L73.77 67.9858H61.5747Z" stroke="#0094FF" stroke-width="4.61451"/>
</g>
<g style="mix-blend-mode:hard-light" filter="url(#filter2_ddi)">
<path d="M26.7356 100.878V102.642H28.5H58.4769H60.2413V100.878V90.2343V88.4699H58.4769H53.6126L56.3049 81.2329H78.8273L81.3564 88.4699H76.9242H75.1599V90.2343V100.878V102.642H76.9242H107.508H109.272V100.878V90.2343V88.4699H107.508H97.5806L75.7921 28.2203L75.371 27.0559H74.1329H48.2823H46.518V28.8203V39.4638V41.2281H48.2823H56.8954L39.0527 88.4699H28.5H26.7356V90.2343V100.878ZM110.719 100.855L110.696 102.642H112.483H129.353H130.301L130.824 101.851L143.166 83.1903H150.04V89.5709H144.402H142.637V91.3353V101V102.764H144.402H174.5H176.264V101V91.3353V89.5709H174.5H165.463V57.7438H174.5H176.264V55.9795V47.0488V45.2844H174.5H142.338C134.068 45.2844 127.567 46.9011 123.151 50.4438C118.788 53.9444 116.544 58.4793 116.544 63.9315C116.544 68.3712 117.832 72.1868 120.498 75.245L120.507 75.2552L120.516 75.2652C122.6 77.583 125.163 79.3828 128.173 80.6784L121.886 89.5709H112.604H110.862L110.84 91.3129L110.719 100.855ZM135.015 59.4397L135.038 59.4303L135.059 59.4204C137.291 58.4044 139.985 57.8662 143.188 57.8662H150.04V71.0978H142.945C139.494 71.0978 136.808 70.517 134.792 69.4688C133.929 69.0008 133.343 68.4157 132.958 67.7235C132.567 67.0187 132.331 66.1042 132.331 64.9102C132.331 63.2616 132.614 62.0614 133.066 61.2102C133.499 60.3928 134.128 59.8148 135.015 59.4397ZM60.8173 68.5287L67.8885 47.686L74.5122 68.5287H60.8173Z" stroke="#00B3FF" stroke-opacity="0.2" stroke-width="3.52875"/>
</g>
<g filter="url(#filter3_f)">
<path d="M27.4142 100.878V101.964H28.5H58.4769H59.5627V100.878V90.2343V89.1485H58.4769H52.6361L55.8333 80.5542H79.309L82.3124 89.1485H76.9242H75.8385V90.2343V100.878V101.964H76.9242H107.508H108.594V100.878V90.2343V89.1485H107.508H97.1044L75.1539 28.4511L74.8948 27.7345H74.1329H48.2823H47.1966V28.8203V39.4638V40.5495H48.2823H57.8771L39.5218 89.1485H28.5H27.4142V90.2343V100.878ZM111.397 100.864L111.383 101.964H112.483H129.353H129.936L130.258 101.477L142.801 82.5117H150.719V90.2495H144.402H143.316V91.3353V101V102.086H144.402H174.5H175.586V101V91.3353V90.2495H174.5H164.784V57.0652H174.5H175.586V55.9795V47.0488V45.963H174.5H142.338C134.137 45.963 127.818 47.5696 123.576 50.9731C119.366 54.3507 117.223 58.6942 117.223 63.9315C117.223 68.2321 118.466 71.8819 121.01 74.7991L121.015 74.8053L121.021 74.8115C123.209 77.2452 125.95 79.0959 129.22 80.3743L122.237 90.2495H112.604H111.532L111.519 91.3215L111.397 100.864ZM134.751 58.8146L134.765 58.8089L134.778 58.8027C137.116 57.7384 139.91 57.1876 143.188 57.1876H150.719V71.7764H142.945C139.421 71.7764 136.617 71.1837 134.474 70.0682C133.507 69.5448 132.819 68.871 132.365 68.0531C131.906 67.2272 131.652 66.1939 131.652 64.9102C131.652 63.1899 131.947 61.871 132.466 60.8923C132.974 59.9344 133.723 59.2493 134.751 58.8146ZM59.8705 69.2073L67.9096 45.5117L75.4399 69.2073H59.8705Z" stroke="#82D9FF" stroke-width="2.17154"/>
</g>
<g filter="url(#filter4_f)">
<path d="M27.9571 100.878V101.421H28.5H58.4769H59.0198V100.878V90.2343V89.6914H58.4769H51.8549L55.456 80.0114H79.6943L83.0772 89.6914H76.9242H76.3814V90.2343V100.878V101.421H76.9242H107.508H108.051V100.878V90.2343V89.6914H107.508H96.7234L74.6434 28.6357L74.5138 28.2774H74.1329H48.2823H47.7394V28.8203V39.4638V40.0067H48.2823H58.6625L39.897 89.6914H28.5H27.9571V90.2343V100.878ZM111.94 100.871L111.933 101.421H112.483H129.353H129.644L129.805 101.177L142.509 81.9688H151.262V90.7924H144.402H143.859V91.3353V101V101.543H144.402H174.5H175.043V101V91.3353V90.7924H174.5H164.241V56.5224H174.5H175.043V55.9795V47.0488V46.5059H174.5H142.338C134.192 46.5059 128.019 48.1044 123.916 51.3965C119.828 54.6757 117.766 58.866 117.766 63.9315C117.766 68.1208 118.974 71.638 121.419 74.4423L121.419 74.4424L121.424 74.4485C123.693 76.972 126.58 78.858 130.069 80.1132L122.518 90.7924H112.604H112.068L112.061 91.3284L111.94 100.871ZM134.54 58.3146L134.547 58.3117L134.553 58.3086C136.976 57.2056 139.85 56.6447 143.188 56.6447H151.262V72.3193H142.945C139.363 72.3193 136.464 71.7171 134.219 70.5476C133.169 69.98 132.401 69.2354 131.89 68.3167C131.378 67.3941 131.109 66.2657 131.109 64.9102C131.109 63.1325 131.413 61.7186 131.986 60.638C132.554 59.5677 133.399 58.797 134.54 58.3146ZM59.113 69.7502L67.9264 43.7723L76.1821 69.7502H59.113Z" stroke="white" stroke-width="1.08577"/>
</g>
<defs>
<filter id="filter0_f" x="0.541904" y="0.861729" width="201.917" height="128.097" filterUnits="userSpaceOnUse" color-interpolation-filters="sRGB">
<feFlood flood-opacity="0" result="BackgroundImageFix"/>
<feBlend mode="normal" in="SourceGraphic" in2="BackgroundImageFix" result="shape"/>
<feGaussianBlur stdDeviation="12.2149" result="effect1_foregroundBlur"/>
</filter>
<filter id="filter1_f" x="15.7425" y="16.0623" width="171.515" height="97.6953" filterUnits="userSpaceOnUse" color-interpolation-filters="sRGB">
<feFlood flood-opacity="0" result="BackgroundImageFix"/>
<feBlend mode="normal" in="SourceGraphic" in2="BackgroundImageFix" result="shape"/>
<feGaussianBlur stdDeviation="4.07163" result="effect1_foregroundBlur"/>
</filter>
<filter id="filter2_ddi" x="14.3854" y="22.8485" width="174.23" height="100.41" filterUnits="userSpaceOnUse" color-interpolation-filters="sRGB">
<feFlood flood-opacity="0" result="BackgroundImageFix"/>
<feColorMatrix in="SourceAlpha" type="matrix" values="0 0 0 0 0 0 0 0 0 0 0 0 0 0 0 0 0 0 127 0" result="hardAlpha"/>
<feOffset dy="3.52875"/>
<feGaussianBlur stdDeviation="1.35721"/>
<feColorMatrix type="matrix" values="0 0 0 0 0 0 0 0 0 0.051 0 0 0 0 0.082 0 0 0 0.7 0"/>
<feBlend mode="multiply" in2="BackgroundImageFix" result="effect1_dropShadow"/>
<feColorMatrix in="SourceAlpha" type="matrix" values="0 0 0 0 0 0 0 0 0 0 0 0 0 0 0 0 0 0 127 0" result="hardAlpha"/>
<feOffset dy="8.14326"/>
<feGaussianBlur stdDeviation="5.29312"/>
<feColorMatrix type="matrix" values="0 0 0 0 0 0 0 0 0 0.4 0 0 0 0 1 0 0 0 1 0"/>
<feBlend mode="color-dodge" in2="effect1_dropShadow" result="effect2_dropShadow"/>
<feBlend mode="normal" in="SourceGraphic" in2="effect2_dropShadow" result="shape"/>
<feColorMatrix in="SourceAlpha" type="matrix" values="0 0 0 0 0 0 0 0 0 0 0 0 0 0 0 0 0 0 127 0" result="hardAlpha"/>
<feOffset dx="-0.352875" dy="0.705749"/>
<feGaussianBlur stdDeviation="0.176437"/>
<feComposite in2="hardAlpha" operator="arithmetic" k2="-1" k3="1"/>
<feColorMatrix type="matrix" values="0 0 0 0 1 0 0 0 0 1 0 0 0 0 1 0 0 0 0.5 0"/>
<feBlend mode="normal" in2="shape" result="effect3_innerShadow"/>
</filter>
<filter id="filter3_f" x="25.7852" y="26.106" width="151.429" height="77.6086" filterUnits="userSpaceOnUse" color-interpolation-filters="sRGB">
<feFlood flood-opacity="0" result="BackgroundImageFix"/>
<feBlend mode="normal" in="SourceGraphic" in2="BackgroundImageFix" result="shape"/>
<feGaussianBlur stdDeviation="0.271442" result="effect1_foregroundBlur"/>
</filter>
<filter id="filter4_f" x="27.0521" y="27.3725" width="148.895" height="75.0751" filterUnits="userSpaceOnUse" color-interpolation-filters="sRGB">
<feFlood flood-opacity="0" result="BackgroundImageFix"/>
<feBlend mode="normal" in="SourceGraphic" in2="BackgroundImageFix" result="shape"/>
<feGaussianBlur stdDeviation="0.180961" result="effect1_foregroundBlur"/>
</filter>
</defs>
</svg>
