<svg width="123" height="122" viewBox="0 0 123 122" fill="none" xmlns="http://www.w3.org/2000/svg">
<g clip-path="url(#clip0)">
<g style="mix-blend-mode:hard-light" filter="url(#filter0_f)">
<path d="M61.1461 22.3751L61.668 22.889L62.1899 22.3751L67.0462 17.5935L69.4457 16.5651H110.922L114.299 19.9419V95.5757L110.922 98.9524H70.8942H70.5886L70.3713 99.1672L64.0312 105.434H59.3048L52.9646 99.1672L52.7473 98.9524H52.4417H12.4136L9.03683 95.5757V19.9419L12.4136 16.5651H53.8903L56.2898 17.5935L61.1461 22.3751ZM57.3447 95.0521L58.5933 96.2313L58.5993 94.5139L58.8281 29.0914L58.8292 28.7817L58.6102 28.5628L52.9677 22.9203L52.7498 22.7024H52.4417H15.918H15.1741V23.4463V92.0713V92.8151H15.918H53.8773L56.0591 93.8379L57.3447 95.0521ZM107.418 92.8151H108.162V92.0713V23.4463V22.7024H107.418H70.8942H70.5861L70.3682 22.9203L65.0307 28.2578L64.8129 28.4757V28.7838V94.2063V95.9121L66.0629 94.7514L67.0358 93.8479L69.4457 92.8151H107.418ZM24.2868 45.5774V39.4401H45.6741V45.5774H24.2868ZM24.2868 76.0774V69.9402H45.6741V76.0774H24.2868ZM24.2868 54.6902H45.6741V60.8274H24.2868V54.6902ZM77.6618 45.5774V39.4401H99.0491V45.5774H77.6618ZM77.6618 54.6902H99.0491V60.8274H77.6618V54.6902ZM77.6618 69.9402H99.0491V76.0774H77.6618V69.9402Z" stroke="#0094FF" stroke-width="1.48772"/>
</g>
<g style="mix-blend-mode:hard-light" filter="url(#filter1_f)">
<path d="M60.9855 22.5382L61.668 23.2102L62.3504 22.5382L67.176 17.7869L69.4926 16.794H110.828L114.07 20.0367V95.4809L110.828 98.7235H70.8942H70.4946L70.2104 99.0044L63.9371 105.205H59.3988L53.1255 99.0044L52.8413 98.7235H52.4417H12.5084L9.26571 95.4809V20.0367L12.5084 16.794H53.8433L56.1599 17.7869L60.9855 22.5382ZM57.1876 95.2185L58.8204 96.7606L58.8282 94.5147L59.057 29.0922L59.0584 28.6873L58.7721 28.401L53.1296 22.7585L52.8446 22.4735H52.4417H15.918H14.9452V23.4463V92.0713V93.044H15.918H53.8263L55.9286 94.0295L57.1876 95.2185ZM107.418 93.044H108.391V92.0713V23.4463V22.4735H107.418H70.8942H70.4913L70.2064 22.7585L64.8689 28.096L64.584 28.3809V28.7838V94.2063V96.437L66.2186 94.9191L67.1625 94.0427L69.4926 93.044H107.418ZM24.5157 45.3485V39.669H45.4452V45.3485H24.5157ZM24.5157 75.8485V70.169H45.4452V75.8485H24.5157ZM24.5157 54.919H45.4452V60.5985H24.5157V54.919ZM77.8907 45.3485V39.669H98.8202V45.3485H77.8907ZM77.8907 54.919H98.8202V60.5985H77.8907V54.919ZM77.8907 70.169H98.8202V75.8485H77.8907V70.169Z" stroke="#0094FF" stroke-width="1.94548"/>
</g>
<g style="mix-blend-mode:hard-light" filter="url(#filter2_ddi)">
<path d="M61.1461 22.3751L61.668 22.889L62.1899 22.3751L67.0462 17.5935L69.4457 16.5651H110.922L114.299 19.9419V95.5757L110.922 98.9524H70.8942H70.5886L70.3713 99.1672L64.0312 105.434H59.3048L52.9646 99.1672L52.7473 98.9524H52.4417H12.4136L9.03683 95.5757V19.9419L12.4136 16.5651H53.8903L56.2898 17.5935L61.1461 22.3751ZM57.3447 95.0521L58.5933 96.2313L58.5993 94.5139L58.8281 29.0914L58.8292 28.7817L58.6102 28.5628L52.9677 22.9203L52.7498 22.7024H52.4417H15.918H15.1741V23.4463V92.0713V92.8151H15.918H53.8773L56.0591 93.8379L57.3447 95.0521ZM107.418 92.8151H108.162V92.0713V23.4463V22.7024H107.418H70.8942H70.5861L70.3682 22.9203L65.0307 28.2578L64.8129 28.4757V28.7838V94.2063V95.9121L66.0629 94.7514L67.0358 93.8479L69.4457 92.8151H107.418ZM24.2868 45.5774V39.4401H45.6741V45.5774H24.2868ZM24.2868 76.0774V69.9402H45.6741V76.0774H24.2868ZM24.2868 54.6902H45.6741V60.8274H24.2868V54.6902ZM77.6618 45.5774V39.4401H99.0491V45.5774H77.6618ZM77.6618 54.6902H99.0491V60.8274H77.6618V54.6902ZM77.6618 69.9402H99.0491V76.0774H77.6618V69.9402Z" stroke="#00B3FF" stroke-opacity="0.2" stroke-width="1.48772"/>
</g>
<g filter="url(#filter3_f)">
<path d="M61.3468 22.1712L61.668 22.4874L61.9891 22.1712L66.8839 17.3518L69.3869 16.279H111.041L114.585 19.8234V95.6942L111.041 99.2385H70.8942H70.7062L70.5724 99.3707L64.1487 105.72H59.1873L52.7635 99.3707L52.6298 99.2385H52.4417H12.2951L8.75073 95.6942V19.8234L12.2951 16.279H53.949L56.4521 17.3518L61.3468 22.1712ZM57.5412 94.8441L58.3095 95.5698L58.3132 94.5129L58.542 29.0904L58.5426 28.8998L58.4079 28.7651L52.7654 23.1226L52.6313 22.9885H52.4417H15.918H15.4602V23.4463V92.0713V92.5291H15.918H53.941L56.2221 93.5983L57.5412 94.8441ZM107.418 92.5291H107.876V92.0713V23.4463V22.9885H107.418H70.8942H70.7046L70.5705 23.1226L65.233 28.4601L65.099 28.5942V28.7838V94.2063V95.256L65.8682 94.5417L66.8775 93.6045L69.3869 92.5291H107.418ZM24.0007 45.8635V39.154H45.9602V45.8635H24.0007ZM24.0007 76.3635V69.654H45.9602V76.3635H24.0007ZM24.0007 54.404H45.9602V61.1135H24.0007V54.404ZM77.3757 45.8635V39.154H99.3352V45.8635H77.3757ZM77.3757 54.404H99.3352V61.1135H77.3757V54.404ZM77.3757 69.654H99.3352V76.3635H77.3757V69.654Z" stroke="#82D9FF" stroke-width="0.915521"/>
</g>
<g filter="url(#filter4_f)">
<path d="M61.5074 22.0081L61.668 22.1662L61.8286 22.0081L66.754 17.1584L69.3399 16.0502H111.136L114.814 19.7286V95.789L111.136 99.4674H70.8942H70.8002L70.7333 99.5335L64.2427 105.949H59.0932L52.6026 99.5335L52.5357 99.4674H52.4417H12.2003L8.52185 95.789V19.7286L12.2003 16.0502H53.996L56.5819 17.1584L61.5074 22.0081ZM57.6983 94.6777L58.0825 95.0405L58.0843 94.5121L58.3131 29.0896L58.3134 28.9943L58.2461 28.9269L52.6036 23.2844L52.5365 23.2174H52.4417H15.918H15.6891V23.4463V92.0713V92.3002H15.918H53.992L56.3526 93.4067L57.6983 94.6777ZM107.418 92.3002H107.647V92.0713V23.4463V23.2174H107.418H70.8942H70.7994L70.7324 23.2844L65.3949 28.6219L65.3278 28.689V28.7838V94.2063V94.7312L65.7125 94.374L66.7509 93.4098L69.3399 92.3002H107.418ZM23.7718 46.0924V38.9252H46.1891V46.0924H23.7718ZM23.7718 76.5924V69.4252H46.1891V76.5924H23.7718ZM23.7718 54.1752H46.1891V61.3424H23.7718V54.1752ZM77.1469 46.0924V38.9252H99.5641V46.0924H77.1469ZM77.1469 54.1752H99.5641V61.3424H77.1469V54.1752ZM77.1469 69.4252H99.5641V76.5924H77.1469V69.4252Z" stroke="white" stroke-width="0.45776"/>
</g>
</g>
<defs>
<filter id="filter0_f" x="-2.00664" y="5.52168" width="127.349" height="110.955" filterUnits="userSpaceOnUse" color-interpolation-filters="sRGB">
<feFlood flood-opacity="0" result="BackgroundImageFix"/>
<feBlend mode="normal" in="SourceGraphic" in2="BackgroundImageFix" result="shape"/>
<feGaussianBlur stdDeviation="5.1498" result="effect1_foregroundBlur"/>
</filter>
<filter id="filter1_f" x="4.85977" y="12.3881" width="113.616" height="97.2227" filterUnits="userSpaceOnUse" color-interpolation-filters="sRGB">
<feFlood flood-opacity="0" result="BackgroundImageFix"/>
<feBlend mode="normal" in="SourceGraphic" in2="BackgroundImageFix" result="shape"/>
<feGaussianBlur stdDeviation="1.7166" result="effect1_foregroundBlur"/>
</filter>
<filter id="filter2_ddi" x="3.8298" y="14.7913" width="115.676" height="99.2826" filterUnits="userSpaceOnUse" color-interpolation-filters="sRGB">
<feFlood flood-opacity="0" result="BackgroundImageFix"/>
<feColorMatrix in="SourceAlpha" type="matrix" values="0 0 0 0 0 0 0 0 0 0 0 0 0 0 0 0 0 0 127 0" result="hardAlpha"/>
<feOffset dy="1.48772"/>
<feGaussianBlur stdDeviation="0.572201"/>
<feColorMatrix type="matrix" values="0 0 0 0 0 0 0 0 0 0.051 0 0 0 0 0.082 0 0 0 0.7 0"/>
<feBlend mode="multiply" in2="BackgroundImageFix" result="effect1_dropShadow"/>
<feColorMatrix in="SourceAlpha" type="matrix" values="0 0 0 0 0 0 0 0 0 0 0 0 0 0 0 0 0 0 127 0" result="hardAlpha"/>
<feOffset dy="3.4332"/>
<feGaussianBlur stdDeviation="2.23158"/>
<feColorMatrix type="matrix" values="0 0 0 0 0 0 0 0 0 0.4 0 0 0 0 1 0 0 0 1 0"/>
<feBlend mode="color-dodge" in2="effect1_dropShadow" result="effect2_dropShadow"/>
<feBlend mode="normal" in="SourceGraphic" in2="effect2_dropShadow" result="shape"/>
<feColorMatrix in="SourceAlpha" type="matrix" values="0 0 0 0 0 0 0 0 0 0 0 0 0 0 0 0 0 0 127 0" result="hardAlpha"/>
<feOffset dx="-0.148772" dy="0.297544"/>
<feGaussianBlur stdDeviation="0.0743861"/>
<feComposite in2="hardAlpha" operator="arithmetic" k2="-1" k3="1"/>
<feColorMatrix type="matrix" values="0 0 0 0 1 0 0 0 0 1 0 0 0 0 1 0 0 0 0.5 0"/>
<feBlend mode="normal" in2="shape" result="effect3_innerShadow"/>
</filter>
<filter id="filter3_f" x="8.06409" y="15.5924" width="107.208" height="90.814" filterUnits="userSpaceOnUse" color-interpolation-filters="sRGB">
<feFlood flood-opacity="0" result="BackgroundImageFix"/>
<feBlend mode="normal" in="SourceGraphic" in2="BackgroundImageFix" result="shape"/>
<feGaussianBlur stdDeviation="0.11444" result="effect1_foregroundBlur"/>
</filter>
<filter id="filter4_f" x="8.14038" y="15.6687" width="107.055" height="90.6614" filterUnits="userSpaceOnUse" color-interpolation-filters="sRGB">
<feFlood flood-opacity="0" result="BackgroundImageFix"/>
<feBlend mode="normal" in="SourceGraphic" in2="BackgroundImageFix" result="shape"/>
<feGaussianBlur stdDeviation="0.0762934" result="effect1_foregroundBlur"/>
</filter>
<clipPath id="clip0">
<rect width="122" height="122" fill="white" transform="translate(0.667969)"/>
</clipPath>
</defs>
</svg>
