<svg width="39" height="41" viewBox="0 0 39 41" fill="none" xmlns="http://www.w3.org/2000/svg">
<path d="M36.8215 18.4091C36.8215 29.4548 30.8672 34.4092 19.8215 34.4092C18.9223 34.4092 18.5051 32.8883 17.3422 33.7136C15.1682 35.2563 12.1348 39.5788 10.7685 39.2171C10.5824 37.8572 10.4311 34.349 10.0905 33.7136C9.74999 33.0781 2.15466 30.338 1.82153 18.4091C1.82153 7.36345 7.27584 1.40918 18.3215 1.40918C32.9047 1.4092 36.8215 7.36345 36.8215 18.4091Z" fill="white"/>
<path d="M18.6781 0.0263672C15.4664 0.0730339 8.56639 0.599701 4.71139 4.13803C1.84805 7.0047 0.838053 11.193 0.733053 16.388C0.628053 21.5814 0.491386 31.3197 9.87805 33.9597H9.88305L9.87639 37.9864C9.87639 37.9864 9.81472 39.6147 10.8931 39.948C12.1881 40.3514 12.9497 39.1147 14.1931 37.778C14.8714 37.0447 15.8131 35.9714 16.5214 35.1447C22.9381 35.688 27.8747 34.4514 28.4381 34.2697C29.7314 33.8497 37.0647 32.9097 38.2581 23.1747C39.4914 13.1414 37.6581 6.79137 34.3581 3.93137C33.3647 3.0147 29.3481 0.0980339 20.3997 0.0597005C20.3997 0.0597005 19.7414 0.0180339 18.6714 0.0313672L18.6781 0.0263672ZM18.7747 2.84803C19.6831 2.84137 20.2414 2.87637 20.2414 2.87637C27.8114 2.9097 31.4364 5.1897 32.2781 5.95303C35.0697 8.3447 36.4947 14.0664 35.4547 22.448V22.4514C34.4481 30.5814 28.4981 31.0914 27.4014 31.443C26.9347 31.593 22.5981 32.6714 17.1464 32.3164C17.1464 32.3164 13.0864 37.2164 11.8181 38.4897C11.6181 38.6897 11.3847 38.768 11.2314 38.7297C11.0147 38.6747 10.9547 38.4164 10.9564 38.0397L10.9897 31.343C3.05305 29.143 3.51472 20.8564 3.60639 16.518C3.69639 12.178 4.51139 8.62137 6.93305 6.2297C10.1997 3.2747 16.0564 2.86637 18.7831 2.84637L18.7747 2.84803ZM19.4081 7.1847C19.2788 7.19122 19.157 7.24692 19.0675 7.34039C18.9781 7.43386 18.9278 7.55801 18.9269 7.68739C18.9261 7.81676 18.9747 7.94157 19.063 8.03621C19.1512 8.13084 19.2723 8.18815 19.4014 8.19637C22.1081 8.21303 24.3114 9.09137 26.1147 10.8497C27.9031 12.593 28.8147 14.963 28.8364 18.073C28.8397 18.3514 29.0697 18.573 29.3481 18.573C29.4813 18.5713 29.6084 18.5171 29.702 18.4223C29.7956 18.3275 29.8481 18.1996 29.8481 18.0664C29.8247 14.7597 28.8181 12.073 26.8214 10.1264C24.8381 8.19303 22.3347 7.2047 19.4097 7.1847H19.4081ZM12.8081 8.34303C12.4537 8.29397 12.0931 8.36247 11.7814 8.53803L11.7647 8.54137C11.0481 8.95303 10.4047 9.47803 9.85472 10.0947C9.85139 10.1014 9.84472 10.1014 9.84139 10.108C9.39639 10.6464 9.14139 11.1714 9.07472 11.688C9.06167 11.7651 9.05775 11.8434 9.06305 11.9214C9.06305 12.148 9.09972 12.3714 9.17139 12.588L9.19305 12.6047C9.41805 13.4047 9.98139 14.7314 11.2014 16.9447C11.9014 18.2247 12.7064 19.4447 13.6114 20.588C14.0614 21.1614 14.5447 21.7097 15.0614 22.228L15.2814 22.448C15.7981 22.9614 16.3481 23.448 16.9214 23.898C18.0657 24.8032 19.2844 25.61 20.5647 26.3097C22.7781 27.5314 24.1081 28.093 24.9047 28.3197L24.9214 28.343C25.2113 28.4378 25.5183 28.4691 25.8214 28.4347C26.3381 28.3747 26.8664 28.118 27.4014 27.668C27.4081 27.668 27.4064 27.6647 27.4147 27.6597C28.0314 27.1097 28.5531 26.4597 28.9647 25.7464L28.9697 25.7297C29.3447 25.0097 29.2197 24.3264 28.6697 23.863C28.6631 23.863 27.5064 22.8964 26.9414 22.4797C26.3414 22.0547 25.7247 21.6597 25.0864 21.2964C24.2364 20.8214 23.3664 21.1197 23.0064 21.5864L22.2614 22.5264C21.8781 22.998 21.1664 22.9364 21.1664 22.9364C15.9664 21.6097 14.5747 16.3447 14.5747 16.3447C14.5747 16.3447 14.5131 15.6347 14.9881 15.2514L15.9264 14.5047C16.3881 14.1464 16.6864 13.2764 16.2097 12.4247C15.8477 11.7852 15.4527 11.1649 15.0264 10.5664C14.5788 9.98066 14.1176 9.4055 13.6431 8.84137C13.434 8.57964 13.1364 8.40355 12.8064 8.34637L12.8081 8.34303ZM20.2914 9.8097C20.1574 9.80572 20.0274 9.85511 19.9299 9.94701C19.8324 10.0389 19.7754 10.1658 19.7714 10.2997C19.7674 10.4336 19.8168 10.5637 19.9087 10.6612C20.0006 10.7587 20.1275 10.8157 20.2614 10.8197C22.1947 10.9614 23.6231 11.5964 24.6697 12.7364C25.7197 13.883 26.2197 15.2764 26.1797 17.0197C26.187 17.1479 26.2423 17.2686 26.3347 17.3577C26.4271 17.4469 26.5497 17.4979 26.678 17.5007C26.8064 17.5034 26.931 17.4576 27.0271 17.3725C27.1232 17.2874 27.1837 17.1691 27.1964 17.0414C27.2381 15.083 26.6397 13.3864 25.4181 12.0514C24.1847 10.7014 22.4564 9.96303 20.3347 9.80803H20.2947L20.2914 9.8097ZM21.0631 12.5264C20.9347 12.5282 20.8118 12.5786 20.7191 12.6673C20.6264 12.7561 20.5706 12.8766 20.5631 13.0047C20.5497 13.283 20.7631 13.5214 21.0431 13.538C21.9147 13.5847 22.5014 13.8297 22.8981 14.2414C23.2981 14.6497 23.5447 15.2747 23.5914 16.1814C23.6085 16.307 23.6722 16.4217 23.7698 16.5027C23.8674 16.5837 23.9918 16.6251 24.1185 16.6189C24.2452 16.6126 24.3649 16.559 24.454 16.4688C24.5431 16.3785 24.5951 16.2581 24.5997 16.1314C24.5497 15.058 24.2414 14.168 23.6331 13.5364C23.0214 12.9064 22.1447 12.5797 21.0997 12.5247H21.0697L21.0631 12.5264Z" fill="#4EB1F6"/>
</svg>
